<svg id="Capa_1" enable-background="new 0 0 512 512" height="512" viewBox="0 0 512 512" width="512" xmlns="http://www.w3.org/2000/svg"><g><circle cx="105" cy="441" r="55"/><circle cx="407" cy="441" r="55"/><path d="m437 177h-107v89h182v-14c0-41.421-33.579-75-75-75z"/><path d="m330 405.053c13.569-28.947 42.974-49.053 77-49.053 45.19 0 82.242 35.451 84.841 80h5.159c8.284 0 15-6.716 15-15v-65h-30c-8.284 0-15-6.716-15-15s6.716-15 15-15h30v-30h-182z"/><path d="m437 147c0-16.569-13.431-30-30-30s-30 13.431-30 30z"/><path d="m444.5 97.048c2.362 1.364 4.941 2.013 7.486 2.013 5.184 0 10.226-2.69 13.004-7.503l10-17.32c4.142-7.174 1.684-16.349-5.49-20.49-7.175-4.145-16.349-1.686-20.49 5.49l-10 17.32c-4.142 7.173-1.684 16.348 5.49 20.49z"/><path d="m349.01 91.558c2.778 4.812 7.82 7.503 13.004 7.503 2.544 0 5.124-.648 7.486-2.013 7.174-4.142 9.632-13.316 5.49-20.49l-10-17.32c-4.142-7.174-13.316-9.634-20.49-5.49-7.174 4.142-9.632 13.316-5.49 20.49z"/><path d="m407 87c8.284 0 15-6.716 15-15v-20c0-8.284-6.716-15-15-15s-15 6.716-15 15v20c0 8.284 6.716 15 15 15z"/><path d="m105 226h30v50h-30z"/><path d="m165 226h30v50h-30z"/><path d="m290 16h-250c-8.284 0-15 6.716-15 15s6.716 15 15 15h10v25h30v-25h210c8.284 0 15-6.716 15-15s-6.716-15-15-15z"/><path d="m255 101h-210c-24.853 0-45 20.147-45 45v275c0 8.284 6.716 15 15 15h5.159c2.599-44.549 39.651-80 84.841-80s82.242 35.451 84.841 80h110.159v-290c0-24.853-20.147-45-45-45zm-15 175c8.284 0 15 6.716 15 15s-6.716 15-15 15h-180c-8.284 0-15-6.716-15-15s6.716-15 15-15h15v-50h-15c-8.284 0-15-6.716-15-15s6.716-15 15-15h180c8.284 0 15 6.716 15 15s-6.716 15-15 15h-15v50z"/></g></svg>