<svg xmlns="http://www.w3.org/2000/svg" height="512pt" version="1.1" viewBox="0 -53 512.00005 512" width="512pt">
<g id="surface1">
<path d="M 40.066406 59.792969 L 471.925781 59.792969 L 471.925781 268.652344 L 40.066406 268.652344 Z M 40.066406 59.792969 " style=" stroke:none;fill-rule:nonzero;fill:rgb(100%,89.411765%,46.666667%);fill-opacity:1;" />
<path d="M 255.996094 59.792969 L 471.925781 59.792969 L 471.925781 268.652344 L 255.996094 268.652344 Z M 255.996094 59.792969 " style=" stroke:none;fill-rule:nonzero;fill:rgb(100%,80.392157%,0%);fill-opacity:1;" />
<path d="M 176.894531 59.792969 L 74.484375 268.652344 L 41.074219 268.652344 L 143.476562 59.792969 Z M 176.894531 59.792969 " style=" stroke:none;fill-rule:nonzero;fill:rgb(41.176471%,43.137255%,45.098039%);fill-opacity:1;" />
<path d="M 256.875 59.792969 L 154.476562 268.652344 L 121.066406 268.652344 L 223.46875 59.792969 Z M 256.875 59.792969 " style=" stroke:none;fill-rule:nonzero;fill:rgb(41.176471%,43.137255%,45.098039%);fill-opacity:1;" />
<path d="M 335.988281 59.792969 L 255.996094 222.949219 L 233.585938 268.652344 L 200.171875 268.652344 L 255.996094 154.804688 L 302.582031 59.792969 Z M 335.988281 59.792969 " style=" stroke:none;fill-rule:nonzero;fill:rgb(41.176471%,43.137255%,45.098039%);fill-opacity:1;" />
<path d="M 415.980469 59.792969 L 313.578125 268.652344 L 280.171875 268.652344 L 382.574219 59.792969 Z M 415.980469 59.792969 " style=" stroke:none;fill-rule:nonzero;fill:rgb(21.568627%,23.529412%,25.490196%);fill-opacity:1;" />
<path d="M 471.925781 59.792969 L 471.925781 110.1875 L 394.230469 268.652344 L 360.816406 268.652344 L 463.214844 59.792969 Z M 471.925781 59.792969 " style=" stroke:none;fill-rule:nonzero;fill:rgb(21.568627%,23.529412%,25.490196%);fill-opacity:1;" />
<path d="M 80.140625 17.859375 L 79.730469 366.824219 C 79.730469 388.390625 62.492188 406.019531 41.074219 406.660156 C 40.675781 406.671875 40.265625 406.679688 39.867188 406.679688 C 17.886719 406.679688 0 388.792969 0 366.8125 L 0.410156 17.726562 C 0.441406 7.9375 8.390625 0 18.160156 0 C 18.160156 0 18.167969 0 18.179688 0 L 41.074219 0.0390625 L 62.414062 0.0703125 C 67.164062 0.0703125 71.613281 1.929688 74.960938 5.289062 C 78.3125 8.648438 80.152344 13.109375 80.140625 17.859375 Z M 80.140625 17.859375 " style=" stroke:none;fill-rule:nonzero;fill:rgb(88.235294%,92.156863%,94.117647%);fill-opacity:1;" />
<path d="M 512 17.859375 L 511.589844 366.824219 C 511.589844 388.722656 493.8125 406.570312 471.925781 406.679688 L 471.722656 406.679688 C 449.746094 406.679688 431.859375 388.792969 431.859375 366.8125 L 432.269531 17.726562 C 432.296875 7.9375 440.246094 0 450.015625 0 C 450.027344 0 450.027344 0 450.035156 0 L 471.925781 0.03125 L 494.273438 0.0703125 C 499.019531 0.0703125 503.472656 1.929688 506.820312 5.289062 C 510.171875 8.648438 512.011719 13.109375 512 17.859375 Z M 512 17.859375 " style=" stroke:none;fill-rule:nonzero;fill:rgb(88.235294%,92.156863%,94.117647%);fill-opacity:1;" />
<path d="M 335.988281 59.792969 L 255.996094 222.949219 L 255.996094 154.804688 L 302.582031 59.792969 Z M 335.988281 59.792969 " style=" stroke:none;fill-rule:nonzero;fill:rgb(21.568627%,23.529412%,25.490196%);fill-opacity:1;" />
<path d="M 80.140625 17.859375 L 79.730469 366.824219 C 79.730469 388.390625 62.492188 406.019531 41.074219 406.660156 L 41.074219 0.0390625 L 62.414062 0.0703125 C 67.164062 0.0703125 71.613281 1.929688 74.960938 5.289062 C 78.3125 8.648438 80.152344 13.109375 80.140625 17.859375 Z M 80.140625 17.859375 " style=" stroke:none;fill-rule:nonzero;fill:rgb(70.588235%,82.352941%,84.313725%);fill-opacity:1;" />
<path d="M 512 17.859375 L 511.589844 366.824219 C 511.589844 388.722656 493.8125 406.570312 471.925781 406.679688 L 471.925781 0.03125 L 494.273438 0.0703125 C 499.019531 0.0703125 503.472656 1.929688 506.820312 5.289062 C 510.171875 8.648438 512.011719 13.109375 512 17.859375 Z M 512 17.859375 " style=" stroke:none;fill-rule:nonzero;fill:rgb(70.588235%,82.352941%,84.313725%);fill-opacity:1;" />
</g>
</svg>