<svg id="Flat" height="512" viewBox="0 0 512 512" width="512" xmlns="http://www.w3.org/2000/svg"><path d="m248 200a64.027 64.027 0 0 0 -61.984 48h-2.016v112h128v-160z" fill="#c7312e"/><g fill="#dadcde"><path d="m128 72h16v48h-16z"/><path d="m176 72h16v48h-16z"/><path d="m224 72h16v48h-16z"/><path d="m272 72h16v48h-16z"/><path d="m320 72h16v48h-16z"/><path d="m368 72h16v48h-16z"/><path d="m416 72h16v48h-16z"/></g><path d="m312 280h176v112h-176z" fill="#eb423f"/><path d="m24 360h288v32h-288z" fill="#dadcde"/><path d="m184 184v176h-144l13.35-146.9a32 32 0 0 1 31.87-29.1z" fill="#eb423f"/><path d="m184 313.61v78.39h-96a80.028 80.028 0 0 1 96-78.39z" fill="#a82a27"/><path d="m24 328h32v64h-32z" fill="#a82a27"/><path d="m152 280h-80l6.248-49.985a16 16 0 0 1 15.876-14.015h57.876z" fill="#e9eef2"/><circle cx="169.33" cy="392" fill="#606669" r="48"/><circle cx="169.33" cy="392" fill="#e9eef2" r="16"/><path d="m57.43 200.13a31.808 31.808 0 0 0 -4.08 12.97l-.26 2.9h-21.09v24a8 8 0 0 1 -16 0v-32a8 8 0 0 1 8-8h32a7.459 7.459 0 0 1 1.43.13z" fill="#a82a27"/><circle cx="400" cy="392" fill="#606669" r="48"/><circle cx="400" cy="392" fill="#e9eef2" r="16"/><circle cx="232" cy="248" fill="#b6b9ba" r="16"/><path d="m72 120h416v32h-416z" fill="#a82a27"/><path d="m480 120h-16v-32a8.009 8.009 0 0 0 -8-8h-352a8.009 8.009 0 0 0 -8 8v32h-16v-32a24.027 24.027 0 0 1 24-24h352a24.027 24.027 0 0 1 24 24z" fill="#e9eef2"/><path d="m424 120a32 32 0 0 0 -32 32v64h64v-64a32 32 0 0 0 -32-32z" fill="#eb423f"/><circle cx="424" cy="152" fill="#e9eef2" r="8"/><path d="m312 248h176v32h-176z" fill="#dadcde"/><path d="m344 216h32v32h-32z" fill="#b6b9ba"/><path d="m408 216h32v32h-32z" fill="#b6b9ba"/><path d="m312 184h176v32h-176z" fill="#dadcde"/><path d="m239.43 200.57a49.122 49.122 0 0 0 -7.43-.57 48 48 0 0 0 -48 48 49.122 49.122 0 0 0 .57 7.43 48.05 48.05 0 0 0 63.43 37.84v2.73h32v-48a48.016 48.016 0 0 0 -40.57-47.43zm-7.43 63.43a16 16 0 1 1 16-16 16 16 0 0 1 -16 16z" fill="#b6b9ba"/><path d="m248 296h32v32h-32z" fill="#60b8d1"/><circle cx="232" cy="248" fill="#dadcde" r="48"/><circle cx="232" cy="248" fill="#b6b9ba" r="16"/></svg>