<svg width="48" height="48" viewBox="0 0 48 48" fill="none" xmlns="http://www.w3.org/2000/svg">
<path d="M24.0034 0C17.1462 0 11.5408 5.60542 11.5408 12.4626C11.5408 19.3198 17.1462 24.9252 24.0034 24.9252C30.8605 24.9252 36.466 19.3198 36.466 12.4626C36.466 5.60542 30.8605 0 24.0034 0Z" fill="#B2BEC3"/>
<path d="M45.3911 34.8843C45.0645 34.0679 44.6292 33.3061 44.1394 32.5986C41.636 28.8978 37.7721 26.4489 33.4184 25.8502C32.8742 25.7959 32.2756 25.9046 31.8401 26.2312C29.5544 27.9183 26.8334 28.789 24.0034 28.789C21.1734 28.789 18.4523 27.9183 16.1666 26.2312C15.7312 25.9046 15.1325 25.7414 14.5884 25.8502C10.2346 26.4489 6.31629 28.8978 3.86733 32.5986C3.37754 33.3061 2.94212 34.1224 2.61566 34.8843C2.45243 35.2109 2.50681 35.5918 2.67004 35.9184C3.10545 36.6802 3.64962 37.4422 4.13941 38.0952C4.90129 39.1293 5.71764 40.0544 6.64285 40.9251C7.40472 41.687 8.27545 42.3945 9.14629 43.102C13.4456 46.3129 18.6157 47.9999 23.949 47.9999C29.2823 47.9999 34.4524 46.3128 38.7517 43.102C39.6224 42.449 40.4932 41.687 41.2551 40.9251C42.1259 40.0544 42.9966 39.1292 43.7586 38.0952C44.3027 37.3877 44.7926 36.6802 45.228 35.9184C45.4999 35.5918 45.5543 35.2108 45.3911 34.8843Z" fill="#B2BEC3"/>
<path d="M47.3705 38.0016C47.3729 38.0457 47.3697 38.0905 47.3586 38.135L46.3717 42.0826C46.3219 42.2815 46.1437 42.4214 45.9388 42.4224L40.0173 42.4523C40.0165 42.4523 40.0158 42.4523 40.015 42.4523H34.0935C33.8875 42.4523 33.708 42.312 33.6582 42.1121L32.6713 38.1495C32.6599 38.1038 32.6566 38.0577 32.6595 38.0126C32.2777 37.8923 32 37.535 32 37.114C32 36.5945 32.4226 36.172 32.9421 36.172C33.4615 36.172 33.8841 36.5945 33.8841 37.114C33.8841 37.4066 33.7501 37.6683 33.5402 37.8412L34.7758 39.0862C35.0881 39.4009 35.5214 39.5812 35.9648 39.5812C36.489 39.5812 36.9888 39.3323 37.3035 38.9152L39.3342 36.2246C39.1636 36.0541 39.0579 35.8186 39.0579 35.5589C39.0579 35.0394 39.4805 34.6168 40 34.6168C40.5195 34.6168 40.9421 35.0394 40.9421 35.5589C40.9421 35.8108 40.842 36.0395 40.6804 36.2087C40.6809 36.2094 40.6816 36.21 40.6821 36.2108L42.698 38.9088C43.0127 39.3299 43.5143 39.5813 44.04 39.5813C44.4874 39.5813 44.9081 39.4071 45.2244 39.0907L46.4678 37.8473C46.2535 37.6744 46.1159 37.4102 46.1159 37.114C46.1159 36.5945 46.5385 36.172 47.0579 36.172C47.5774 36.172 48 36.5945 48 37.114C48 37.5238 47.7365 37.8723 47.3705 38.0016ZM46.2754 43.8579C46.2754 43.6102 46.0746 43.4093 45.8268 43.4093H34.2231C33.9753 43.4093 33.7745 43.6102 33.7745 43.8579V44.9346C33.7745 45.1823 33.9753 45.3832 34.2231 45.3832H45.8268C46.0746 45.3832 46.2754 45.1823 46.2754 44.9346V43.8579Z" fill="#F1C40F"/>
</svg>
