<svg height="512pt" viewBox="0 0 512 512" width="512pt" xmlns="http://www.w3.org/2000/svg"><path d="m256.402344 179.601562c-6.039063 0-12.210938 1.664063-12.210938 13.980469v44.828125c0 12.316406 6.171875 13.976563 12.210938 13.976563 8.554687 0 12.367187-4.308594 12.367187-13.976563v-44.832031c.003907-9.664063-3.8125-13.976563-12.367187-13.976563zm0 0"/><path d="m436.015625 62.300781c-48.207031-40.175781-112.140625-62.300781-180.015625-62.300781s-131.804688 22.125-180.015625 62.300781c-49 40.835938-75.984375 95.359375-75.984375 153.535157 0 59.519531 29.179688 116.367187 80.335938 157.054687v103.367187c0 26.382813 14.582031 35.742188 27.070312 35.742188 9 0 18.0625-4.496094 26.9375-13.371094l71.164062-71.164062c16.566407 2.789062 33.511719 4.199218 50.492188 4.199218 67.875 0 131.808594-22.125 180.015625-62.296874 49-40.832032 75.984375-95.355469 75.984375-153.53125 0-58.175782-26.984375-112.703126-75.984375-153.535157zm-278.460937 217.882813c-22.167969 0-41.613282-11.410156-41.613282-24.421875 0-6.269531 5.445313-15.746094 13.65625-15.746094 4.195313 0 7.339844 2.640625 10.382813 5.195313 4.003906 3.363281 8.539062 7.175781 16.933593 7.175781 4.058594 0 13.496094-.925781 13.496094-9.480469 0-7.378906-7.117187-10.914062-18.730468-16.070312-14.632813-6.496094-32.847657-14.585938-32.847657-38.71875 0-27.039063 23.457031-36.636719 43.542969-36.636719 5.851562 0 35.027344.839843 35.027344 17.355469 0 6.535156-4.46875 15.585937-12.855469 15.585937-2.96875 0-5.398437-1.246094-7.746094-2.453125-3.335937-1.710938-7.117187-3.652344-14.425781-3.652344-5.101562 0-13.65625 1.023438-13.65625 7.871094 0 4.921875 6.109375 7.761719 16.078125 11.992188 14.980469 6.359374 35.496094 15.0625 35.496094 42.636718.003906 24.285156-16.375 39.367188-42.738281 39.367188zm141.105468-41.777344c0 26.246094-15.402344 41.296875-42.257812 41.296875-26.753906 0-42.101563-15.050781-42.101563-41.296875v-44.828125c0-26.238281 15.347657-41.292969 42.101563-41.292969 26.855468 0 42.257812 15.054688 42.257812 41.292969zm54.660156 41.777344c-22.171874 0-41.617187-11.410156-41.617187-24.421875 0-6.269531 5.445313-15.746094 13.65625-15.746094 4.199219 0 7.34375 2.640625 10.386719 5.195313 4.003906 3.363281 8.539062 7.175781 16.933594 7.175781 4.058593 0 13.496093-.925781 13.496093-9.480469 0-7.378906-7.117187-10.914062-18.730469-16.070312-14.636718-6.496094-32.847656-14.585938-32.847656-38.71875 0-27.039063 23.457032-36.636719 43.546875-36.636719 5.847657 0 35.023438.839843 35.023438 17.355469 0 6.535156-4.46875 15.585937-12.851563 15.585937-2.972656 0-5.402344-1.246094-7.753906-2.453125-3.332031-1.710938-7.113281-3.652344-14.417969-3.652344-5.105469 0-13.660156 1.023438-13.660156 7.871094 0 4.921875 6.113281 7.761719 16.082031 11.992188 14.980469 6.359374 35.496094 15.0625 35.496094 42.636718 0 24.285156-16.378906 39.367188-42.742188 39.367188zm0 0"/></svg>