<?xml version="1.0" standalone="no"?>
<!DOCTYPE svg PUBLIC "-//W3C//DTD SVG 20010904//EN"
 "http://www.w3.org/TR/2001/REC-SVG-20010904/DTD/svg10.dtd">
<svg version="1.0" xmlns="http://www.w3.org/2000/svg"
 width="605.000000pt" height="605.000000pt" viewBox="0 0 605.000000 605.000000"
 preserveAspectRatio="xMidYMid meet">

<g transform="translate(0.000000,605.000000) scale(0.100000,-0.100000)"
fill="#000000" stroke="none">
<path d="M2875 6046 c-5 -3 -27 -7 -47 -11 l-37 -6 86 -65 c47 -37 101 -72
119 -80 40 -17 184 -19 184 -3 0 18 -112 118 -156 140 -39 19 -127 33 -149 25z"/>
<path d="M3088 6041 l-36 -6 79 -70 c100 -89 154 -115 237 -115 34 0 62 4 62
10 0 20 -123 140 -163 159 -48 22 -124 32 -179 22z"/>
<path d="M2630 6023 c-14 -2 -42 -9 -63 -14 l-39 -10 93 -60 c107 -68 152 -83
231 -76 95 8 97 15 20 76 -37 30 -80 60 -97 66 -36 16 -110 25 -145 18z"/>
<path d="M3384 5949 c36 -38 76 -79 90 -90 36 -29 102 -49 158 -49 l49 0 -32
46 c-85 124 -148 164 -262 164 l-69 0 66 -71z"/>
<path d="M2400 5983 c-41 -7 -120 -34 -119 -41 0 -4 46 -29 102 -57 94 -46
107 -50 172 -49 38 0 85 7 104 15 l35 15 -74 49 c-64 43 -153 78 -185 74 -5
-1 -21 -4 -35 -6z"/>
<path d="M3581 5983 c0 -4 31 -46 68 -93 76 -97 137 -137 223 -147 l52 -6 -29
49 c-82 143 -133 181 -267 199 -27 3 -48 3 -47 -2z"/>
<path d="M3844 5907 c8 -12 27 -42 42 -67 44 -73 93 -129 132 -149 46 -24 120
-46 128 -39 11 12 -55 138 -96 182 -43 46 -106 77 -183 89 -38 6 -39 6 -23
-16z"/>
<path d="M2096 5900 c-27 -11 -53 -23 -58 -28 -5 -5 38 -27 96 -50 79 -32 118
-42 158 -41 55 0 139 26 142 44 0 6 -36 29 -82 53 -72 36 -91 42 -145 42 -36
-1 -82 -9 -111 -20z"/>
<path d="M4082 5842 c37 -79 95 -179 119 -207 18 -20 53 -47 78 -59 45 -23
101 -40 101 -32 0 15 -63 155 -84 186 -14 22 -46 51 -71 65 -43 26 -149 60
-143 47z"/>
<path d="M1900 5831 c-38 -12 -108 -49 -115 -61 -3 -5 2 -10 12 -10 10 0 50
-12 88 -25 99 -35 152 -40 217 -21 31 9 66 24 78 34 l22 18 -72 33 c-76 35
-178 49 -230 32z"/>
<path d="M2807 5820 c-244 -21 -517 -80 -740 -161 -61 -22 -189 -78 -282 -124
-445 -218 -824 -552 -1100 -970 -477 -722 -590 -1631 -306 -2456 133 -386 344
-727 635 -1027 474 -488 1067 -773 1754 -843 144 -15 510 -6 650 15 503 76
969 279 1362 592 105 84 334 312 420 419 220 272 415 642 510 970 86 294 114
525 107 860 -7 325 -41 527 -138 817 -339 1021 -1228 1752 -2302 1893 -149 19
-429 26 -570 15z m438 -30 c858 -74 1612 -520 2091 -1236 93 -139 233 -415
289 -568 273 -746 211 -1602 -166 -2281 -429 -774 -1161 -1286 -2034 -1421
-170 -27 -629 -27 -795 -1 -628 99 -1163 373 -1596 819 -614 633 -886 1504
-744 2377 176 1079 986 1962 2045 2231 310 79 611 105 910 80z"/>
<path d="M2804 5710 c-17 -7 -24 -28 -44 -138 l-23 -131 -58 122 -58 122 -38
-3 c-21 -2 -40 -6 -42 -8 -2 -2 -6 -87 -9 -189 -5 -199 -7 -193 46 -179 21 6
22 10 22 133 l0 126 54 -115 53 -115 38 0 39 0 17 95 c10 52 18 111 18 130 1
53 16 26 50 -94 16 -60 32 -110 34 -112 8 -9 67 9 67 20 0 6 -14 56 -30 111
-17 55 -40 130 -51 168 -21 71 -32 79 -85 57z"/>
<path d="M3046 5594 c-3 -71 -9 -154 -12 -186 l-6 -56 66 -7 c86 -10 133 0
168 35 37 37 40 101 5 132 l-23 20 28 28 c45 45 35 106 -22 135 -16 8 -66 18
-113 21 l-84 7 -7 -129z m148 56 c20 -7 26 -17 26 -39 0 -35 -22 -51 -69 -51
-30 0 -31 1 -31 50 0 46 2 50 24 50 14 0 36 -4 50 -10z m-22 -151 c75 -20 56
-99 -24 -99 l-38 0 0 55 c0 60 2 61 62 44z"/>
<path d="M3387 5523 c-15 -93 -27 -175 -27 -184 0 -13 20 -19 93 -29 50 -8 94
-13 97 -12 3 1 5 14 5 30 0 25 -4 28 -57 36 -54 8 -58 10 -58 35 0 14 3 36 6
49 6 22 10 23 70 16 64 -6 64 -6 64 19 0 27 -7 31 -78 42 l-43 7 7 36 c4 21
10 40 13 45 4 4 31 3 60 -3 29 -5 57 -7 62 -4 8 4 14 54 7 54 -2 0 -41 7 -88
15 -47 8 -90 15 -95 15 -6 0 -23 -75 -38 -167z"/>
<path d="M3715 5617 c-2 -7 -23 -79 -45 -162 -23 -82 -43 -157 -46 -166 -3
-12 5 -20 27 -28 18 -6 34 -10 35 -8 5 5 94 330 94 343 0 18 -60 37 -65 21z"/>
<path d="M2205 5591 c-107 -48 -137 -178 -67 -290 36 -59 83 -84 144 -77 133
14 199 128 154 263 -36 107 -131 150 -231 104z m123 -74 c26 -28 52 -88 52
-121 0 -59 -46 -106 -105 -106 -54 0 -117 110 -101 175 18 70 108 101 154 52z"/>
<path d="M3842 5407 c-34 -89 -62 -168 -62 -175 0 -15 50 -36 60 -25 4 4 18
37 31 73 l23 65 22 -90 c20 -87 22 -91 58 -108 21 -10 40 -17 42 -15 3 4 -24
115 -40 164 -6 19 -2 22 33 28 83 13 121 113 63 169 -20 19 -143 77 -165 77
-1 0 -30 -73 -65 -163z m149 73 c5 0 16 -11 24 -24 30 -46 -18 -95 -73 -75
l-30 10 20 50 c15 35 25 48 35 44 8 -3 19 -5 24 -5z"/>
<path d="M1812 5435 c-40 -19 -72 -38 -72 -43 0 -5 19 -49 41 -98 23 -49 56
-122 75 -161 l33 -73 57 26 c81 36 114 61 131 101 25 61 -15 133 -73 133 -22
0 -22 1 -8 30 18 34 12 64 -19 98 -30 32 -79 28 -165 -13z m118 -50 c19 -23 3
-63 -31 -81 -17 -8 -32 -14 -34 -12 -1 2 -12 22 -23 44 l-21 41 22 11 c32 16
73 14 87 -3z m68 -137 c20 -20 13 -55 -14 -77 -40 -31 -57 -26 -77 22 -17 40
-17 43 0 54 21 16 75 17 91 1z"/>
<path d="M4253 5380 c-99 -22 -179 -153 -153 -248 17 -66 98 -122 175 -122
104 0 209 130 192 237 -15 88 -121 154 -214 133z m106 -86 c24 -20 31 -34 31
-60 0 -132 -153 -211 -208 -107 -17 32 -15 53 13 109 41 83 107 106 164 58z"/>
<path d="M2860 5284 c-364 -34 -691 -135 -974 -304 -608 -361 -995 -938 -1102
-1640 -24 -157 -24 -462 0 -625 70 -477 277 -903 607 -1250 127 -132 225 -214
385 -321 300 -200 652 -327 1013 -365 177 -18 474 -7 641 25 313 59 567 161
830 331 676 438 1071 1223 1020 2025 -29 457 -175 857 -448 1224 -91 121 -275
312 -392 406 -316 252 -690 415 -1090 475 -104 15 -403 27 -490 19z m447 -29
c488 -63 931 -278 1282 -619 196 -192 334 -381 452 -621 326 -665 303 -1454
-62 -2094 -345 -607 -937 -1011 -1639 -1117 -141 -22 -462 -25 -600 -6 -511
71 -948 287 -1305 646 -295 296 -489 636 -590 1035 -42 165 -56 279 -62 481
-11 389 57 713 221 1047 341 692 968 1143 1734 1248 136 18 425 18 569 0z"/>
<path d="M2755 5219 c-203 -27 -405 -81 -579 -153 -591 -248 -1048 -740 -1246
-1344 -81 -247 -110 -430 -110 -694 0 -360 67 -652 225 -973 112 -228 236
-404 414 -583 849 -857 2236 -869 3100 -28 193 189 333 380 446 611 143 291
211 568 222 896 12 381 -57 707 -222 1044 -88 181 -183 325 -312 475 -286 332
-679 579 -1099 690 -193 51 -289 62 -534 66 -129 1 -266 -2 -305 -7z m450 -70
c436 -37 855 -212 1196 -498 405 -338 672 -836 739 -1371 15 -122 12 -401 -5
-532 -51 -387 -211 -759 -458 -1064 -81 -100 -269 -282 -369 -357 -515 -385
-1174 -520 -1798 -366 -705 174 -1275 702 -1506 1394 -207 622 -118 1297 243
1845 429 650 1184 1016 1958 949z"/>
<path d="M3032 4958 c-42 -46 -54 -130 -31 -209 11 -35 14 -37 33 -27 19 10
20 10 7 -6 -8 -10 -16 -39 -18 -64 -6 -91 -8 -101 -20 -113 -10 -10 -13 -10
-13 4 0 10 -11 22 -24 27 -33 12 -39 25 -25 52 l12 23 -22 -20 c-20 -17 -22
-26 -16 -72 7 -56 1 -68 -15 -30 -7 18 -9 19 -9 4 -1 -26 31 -78 44 -73 6 2
11 -6 11 -18 -1 -15 5 -21 21 -20 29 1 50 -54 33 -86 -13 -25 -47 -26 -53 -2
-3 10 -5 5 -6 -13 l-2 -30 -12 35 c-7 19 -10 36 -6 38 10 5 -2 51 -17 63 -11
9 -14 9 -14 -1 0 -7 -7 -10 -15 -6 -10 3 -15 1 -13 -7 2 -6 -2 -13 -7 -14 -6
-2 -10 23 -10 56 0 33 -3 62 -6 65 -4 4 -4 -5 -2 -19 4 -18 1 -25 -10 -25 -19
0 -33 -89 -19 -117 5 -10 12 -40 15 -66 4 -38 2 -47 -9 -43 -20 8 -17 0 8 -23
11 -11 25 -18 30 -15 4 3 8 0 8 -6 0 -7 9 -23 20 -37 35 -45 23 -62 -14 -20
-18 20 -37 37 -42 37 -5 1 -16 16 -25 34 -13 30 -14 35 0 43 12 8 9 14 -17 38
-31 27 -47 60 -18 36 17 -15 28 -1 15 19 -12 20 -11 67 2 91 8 16 7 23 -7 33
-26 20 -16 165 16 209 l23 32 -36 -34 c-53 -50 -73 -108 -58 -167 13 -51 9
-63 -14 -44 -12 10 -15 10 -15 -3 0 -8 16 -28 37 -44 39 -32 41 -63 4 -63 -15
0 -23 10 -31 39 -11 42 -64 96 -83 84 -6 -4 -2 -9 10 -14 23 -8 63 -68 63 -94
0 -13 -6 -16 -25 -13 -22 5 -25 2 -25 -22 0 -39 86 -108 107 -86 11 10 -20 68
-40 75 -13 5 -16 10 -9 15 15 9 50 -27 58 -61 4 -16 15 -39 26 -52 21 -28 23
-51 4 -51 -7 0 -20 -10 -29 -22 -14 -23 -15 -23 -36 -4 -11 11 -21 28 -21 40
0 15 -3 17 -11 9 -8 -8 -9 -31 -4 -69 6 -47 13 -64 40 -91 36 -36 35 -43 -7
-43 -25 0 -28 -3 -28 -35 l0 -35 343 2 342 3 3 33 c3 29 1 32 -22 32 -35 0
-33 13 4 27 21 8 28 16 24 27 -5 14 -9 14 -34 1 -33 -17 -40 -18 -40 -7 0 4
14 15 30 24 17 9 30 22 30 29 0 8 -4 8 -15 -1 -27 -23 -29 -1 -3 28 42 44 48
63 37 113 -6 24 -9 59 -7 77 3 19 0 31 -6 29 -13 -4 -24 -42 -25 -89 -1 -20
-5 -39 -10 -42 -12 -8 -34 20 -29 36 3 7 0 17 -5 23 -11 11 -38 -7 -80 -52
-20 -23 -47 -31 -47 -15 0 4 6 14 13 21 10 11 9 13 -3 9 -8 -3 -16 -14 -18
-26 -4 -25 -20 -29 -29 -6 -7 18 34 65 51 58 7 -3 16 10 21 28 6 17 16 34 23
36 10 3 9 -3 -3 -22 -16 -24 -16 -26 0 -33 13 -4 25 2 42 21 12 15 23 24 23
19 0 -4 25 17 55 47 58 57 64 74 41 105 -13 18 -14 18 -9 -8 7 -34 -20 -67
-54 -67 -30 0 -31 32 0 54 l22 16 -25 -2 c-20 -2 -27 -11 -34 -41 -8 -31 -14
-37 -29 -33 -12 3 -29 -6 -48 -27 l-30 -32 6 38 c4 24 2 44 -6 53 -19 23 -28
16 -31 -23 -2 -20 -9 -38 -16 -41 -9 -3 -10 2 -3 20 5 15 6 30 0 39 -6 10 -9
5 -9 -18 0 -36 -9 -46 -30 -33 -12 7 -12 19 4 78 12 49 15 78 9 102 -13 49
-33 51 -26 2 4 -32 1 -43 -21 -67 -14 -15 -26 -34 -26 -42 0 -8 -6 -13 -12
-11 -8 3 -14 26 -16 55 -2 40 1 54 15 65 10 7 33 43 51 79 30 58 33 70 25 109
-4 24 -14 45 -20 47 -7 3 -9 -4 -5 -19 5 -21 4 -22 -14 -8 -35 26 -44 43 -44
84 0 60 18 113 43 131 15 11 17 15 6 15 -9 0 -25 -10 -37 -22z m44 -622 c-5
-25 -11 -34 -21 -29 -11 3 -14 -1 -13 -13 2 -11 -1 -20 -7 -22 -19 -5 -16 43
5 65 11 12 20 35 21 50 0 27 1 27 11 6 6 -12 8 -38 4 -57z m85 -15 c-6 -4 -9
-15 -6 -23 4 -10 -3 -24 -16 -37 -27 -25 -44 -27 -35 -5 3 9 6 29 6 45 0 25 3
29 19 24 12 -4 21 0 26 12 6 14 9 15 12 4 3 -7 0 -17 -6 -20z m-278 -53 c9 -5
9 -10 0 -19 -9 -9 -16 -9 -28 1 -18 15 -20 61 -2 79 10 10 13 6 15 -21 2 -18
9 -36 15 -40z m54 -17 c17 -31 21 -47 14 -54 -8 -8 -11 -6 -11 6 0 21 -19 22
-26 2 -11 -27 -26 -3 -20 30 4 19 2 36 -4 40 -16 10 -12 23 7 21 9 0 27 -21
40 -45z m143 -68 c-8 -15 -9 -12 -5 12 5 27 4 28 -5 7 -14 -33 -32 -18 -19 16
6 14 16 33 22 41 10 12 13 8 15 -22 2 -20 -2 -45 -8 -54z m204 -9 c6 -56 5
-64 -19 -92 -28 -33 -34 -52 -10 -32 8 7 15 8 15 3 0 -5 -13 -19 -30 -31 -16
-13 -30 -18 -30 -12 0 6 -4 8 -10 5 -18 -11 -10 12 11 31 18 16 20 26 15 69
-5 41 -4 46 6 30 11 -19 11 -19 19 0 4 11 8 34 8 51 1 26 10 50 16 42 1 -2 5
-31 9 -64z m-62 -3 c-6 -3 -13 -23 -17 -43 -7 -39 -19 -43 -28 -8 -6 23 29 73
45 64 7 -4 7 -9 0 -13z m-282 -5 c0 -8 11 -37 23 -65 18 -38 27 -47 35 -39 24
24 12 -9 -13 -36 -18 -20 -34 -26 -65 -26 -39 0 -41 1 -38 28 3 23 7 27 31 24
31 -4 32 -2 11 57 -15 45 -13 71 6 71 5 0 10 -6 10 -14z m120 -40 c0 -24 3
-27 10 -16 8 12 10 9 10 -12 0 -16 4 -28 10 -28 5 0 3 -15 -5 -32 -7 -18 -21
-33 -30 -33 -14 0 -17 14 -18 87 -2 68 1 84 11 76 6 -6 12 -25 12 -42z m-274
-41 c20 -16 22 -79 3 -83 -21 -4 -39 39 -39 91 1 37 2 39 12 22 6 -11 17 -24
24 -30z m364 4 c0 -11 5 -19 10 -19 17 0 11 -26 -11 -46 -21 -19 -22 -19 -15
2 4 12 2 40 -3 63 -8 35 -7 40 5 30 8 -6 14 -20 14 -30z m-306 -1 c10 -39 -15
-53 -34 -19 -12 24 -3 52 15 45 7 -3 16 -15 19 -26z m436 -73 c0 -8 -7 -15
-15 -15 -26 0 -18 20 13 29 1 1 2 -6 2 -14z"/>
<path d="M2919 4779 c-12 -32 -14 -51 -7 -69 l10 -25 11 23 c8 18 8 25 -2 31
-10 7 -11 13 -1 30 6 12 10 29 8 38 -2 8 -10 -4 -19 -28z"/>
<path d="M3282 4738 c-4 -18 -4 -56 1 -86 5 -29 7 -56 4 -59 -3 -3 -18 4 -33
16 -28 22 -64 28 -64 11 0 -5 15 -16 34 -24 47 -20 58 -43 40 -85 -12 -28 -16
-31 -29 -21 -13 11 -13 8 -4 -19 l11 -30 35 27 c37 29 63 70 63 100 0 10 -11
51 -25 91 -14 40 -23 81 -20 92 4 10 4 19 1 19 -3 0 -9 -15 -14 -32z"/>
<path d="M3135 4730 c3 -14 9 -34 12 -44 4 -13 2 -17 -5 -12 -14 8 -16 -13 -3
-33 7 -11 11 -10 20 7 8 16 6 29 -10 64 -11 23 -18 32 -14 18z"/>
<path d="M3166 4504 c-11 -29 -6 -49 19 -67 24 -17 25 -17 25 1 0 11 -9 22
-20 25 -17 4 -19 11 -14 31 7 28 0 36 -10 10z"/>
<path d="M1437 4306 c93 -125 201 -245 219 -246 20 0 74 47 74 66 0 9 -289
204 -304 204 -4 0 1 -11 11 -24z"/>
<path d="M4465 4234 c-77 -52 -142 -99 -144 -105 -5 -15 50 -69 70 -69 16 0
217 231 227 260 7 20 -16 7 -153 -86z"/>
<path d="M4586 4048 c-39 -81 -119 -164 -167 -173 -47 -9 -129 25 -129 52 0
18 -87 113 -103 113 -20 0 -1 -33 44 -75 l51 -48 -67 -61 -68 -61 18 -34 c49
-96 -33 -192 -207 -247 -32 -10 -58 -21 -58 -24 0 -11 150 -77 202 -89 67 -16
204 -14 273 4 127 33 238 121 290 230 41 85 47 221 15 327 -19 63 -56 149 -63
147 -1 0 -15 -28 -31 -61z"/>
<path d="M1395 4039 c-87 -196 -56 -403 80 -528 155 -141 398 -165 612 -59 35
17 63 34 63 37 0 4 -21 13 -47 19 -73 19 -185 84 -210 122 -27 39 -29 89 -7
132 l16 31 -67 61 -67 61 51 50 c46 45 64 75 43 75 -16 0 -114 -108 -108 -119
9 -13 -65 -51 -100 -51 -65 0 -159 92 -203 198 -8 18 -17 32 -21 32 -4 0 -20
-27 -35 -61z"/>
<path d="M1914 4067 l-36 -33 72 -62 c39 -34 75 -62 79 -62 4 0 22 15 39 33
28 28 31 38 23 58 -17 43 -91 99 -132 99 -5 0 -25 -15 -45 -33z"/>
<path d="M4030 4081 c-34 -18 -80 -73 -80 -96 0 -6 16 -26 35 -45 l34 -33 56
49 c31 27 66 55 76 63 19 14 19 15 -12 48 -37 38 -60 41 -109 14z"/>
<path d="M4282 4059 c-47 -35 -49 -39 -24 -62 17 -16 21 -14 57 23 35 36 38
42 24 55 -13 13 -20 12 -57 -16z"/>
<path d="M1704 4069 c-3 -6 11 -28 32 -50 35 -36 39 -38 56 -22 25 22 23 27
-20 57 -41 28 -57 32 -68 15z"/>
<path d="M1837 3962 l-37 -37 62 -53 61 -53 33 32 c19 18 34 36 34 39 0 3 -26
29 -59 57 l-58 52 -36 -37z"/>
<path d="M4115 3946 l-60 -54 35 -36 35 -36 60 54 60 54 -35 36 -35 36 -60
-54z"/>
<path d="M2740 3895 l0 -25 295 0 295 0 0 25 0 25 -295 0 -295 0 0 -25z"/>
<path d="M1980 3853 c-44 -39 -66 -71 -56 -81 7 -6 116 97 116 110 0 17 -22 7
-60 -29z"/>
<path d="M4010 3882 c0 -4 24 -32 54 -61 68 -67 85 -51 20 19 -42 45 -74 63
-74 42z"/>
<path d="M2776 3835 c5 -13 -27 -15 -255 -15 l-260 0 -3 -89 -3 -89 -113 100
-113 100 -30 -28 c-16 -15 -29 -33 -28 -38 0 -6 65 -67 143 -136 l144 -125 4
-390 c4 -373 5 -393 27 -460 25 -77 58 -139 104 -199 l31 -39 -44 -37 -43 -37
23 -34 c13 -19 25 -36 27 -38 1 -2 25 15 53 38 l49 42 48 -35 c101 -72 225
-123 356 -147 64 -11 77 -20 77 -54 0 -19 7 -21 80 -22 l80 -2 0 34 c0 30 4
35 28 40 166 35 255 69 351 134 l63 43 37 -36 c20 -20 40 -36 43 -36 3 0 16
16 28 36 l21 37 -30 31 -31 32 41 54 c49 65 80 125 105 200 15 48 18 107 23
461 l6 405 133 118 c72 65 132 121 132 125 0 4 -13 20 -30 36 l-30 29 -22 -20
c-13 -11 -60 -53 -105 -93 l-83 -73 0 81 0 81 -265 0 c-231 0 -264 2 -259 15
5 13 -27 15 -255 15 -227 0 -260 -2 -255 -15z m969 -575 c0 -549 0 -548 -58
-669 -49 -101 -177 -226 -287 -280 -127 -62 -221 -83 -365 -83 -90 0 -140 6
-200 21 -237 63 -417 222 -487 431 -21 63 -22 84 -26 563 -2 274 -1 505 2 513
5 12 109 14 713 12 l708 -3 0 -505z"/>
<path d="M2347 3743 c-4 -3 -7 -96 -7 -205 l0 -198 695 0 695 0 0 205 0 205
-688 0 c-379 0 -692 -3 -695 -7z m706 -33 c20 -23 22 -41 5 -37 -17 3 -16 -28
4 -103 22 -79 22 -91 3 -84 -24 9 -18 -24 6 -37 17 -8 20 -8 14 1 -5 9 -2 10
13 6 23 -8 41 12 22 24 -13 8 -7 42 7 38 13 -5 16 6 8 31 -8 27 -36 62 -45 56
-3 -2 -12 5 -18 16 -13 20 -12 20 20 2 18 -9 36 -16 41 -15 4 1 7 -3 7 -10 0
-6 3 -8 7 -5 10 11 43 -45 43 -75 0 -15 5 -30 12 -34 6 -4 8 -3 5 3 -4 6 1 10
11 9 28 -2 28 51 0 82 -13 14 -17 22 -9 17 8 -4 17 -2 23 6 7 11 8 9 6 -6 -2
-15 2 -19 17 -18 11 1 14 0 8 -3 -18 -8 -16 -24 2 -24 8 0 15 -4 15 -10 0 -5
-4 -10 -10 -10 -5 0 -10 -6 -10 -13 0 -18 -34 -49 -52 -46 -30 4 -48 -2 -48
-16 0 -8 -6 -12 -14 -9 -8 3 -17 1 -21 -5 -9 -15 28 -14 44 2 11 10 13 9 8 -5
-4 -10 -3 -17 1 -17 26 4 34 -1 22 -16 -7 -8 -10 -20 -7 -27 3 -10 -31 -13
-154 -13 -143 0 -159 2 -159 17 0 9 -4 20 -10 23 -11 7 9 45 23 45 4 0 5 -5 1
-12 -4 -7 -3 -8 4 -4 19 11 14 37 -5 34 -16 -3 -18 5 -16 50 2 55 26 92 60 92
8 0 11 5 7 12 -4 6 -3 8 4 4 6 -3 22 -2 36 4 17 6 26 6 26 0 0 -6 -6 -10 -13
-10 -7 0 -26 -13 -41 -29 -20 -21 -28 -40 -30 -75 -4 -51 4 -61 46 -58 14 1
29 -2 33 -8 3 -5 15 -10 26 -10 11 0 18 4 14 10 -3 5 -13 6 -22 3 -13 -5 -15
-2 -10 11 5 13 1 19 -13 23 -22 6 -25 14 -12 28 13 15 35 118 30 141 -2 10
-10 18 -16 17 -7 -2 -12 4 -12 12 0 8 7 15 15 15 8 0 14 3 14 8 -5 28 11 29
34 2z m127 -84 c0 -3 -4 -8 -10 -11 -5 -3 -10 -1 -10 4 0 6 5 11 10 11 6 0 10
-2 10 -4z m-337 -52 c-29 -29 -29 -80 0 -78 19 2 21 -4 8 -25 -7 -11 -13 -7
-27 15 -21 31 -20 60 3 85 11 14 12 18 1 22 -7 2 -1 4 13 4 l26 1 -24 -24z
m-43 -34 c0 -5 -2 -10 -4 -10 -3 0 -8 5 -11 10 -3 6 -1 10 4 10 6 0 11 -4 11
-10z m150 -40 c0 -5 -2 -10 -4 -10 -3 0 -8 5 -11 10 -3 6 -1 10 4 10 6 0 11
-4 11 -10z m-85 -60 c3 -5 1 -10 -4 -10 -6 0 -11 5 -11 10 0 6 2 10 4 10 3 0
8 -4 11 -10z m355 0 c0 -5 -5 -10 -11 -10 -5 0 -7 5 -4 10 3 6 8 10 11 10 2 0
4 -4 4 -10z"/>
<path d="M2920 3440 c0 -5 7 -10 16 -10 8 0 12 5 9 10 -3 6 -10 10 -16 10 -5
0 -9 -4 -9 -10z"/>
<path d="M3025 3410 c-3 -5 1 -10 9 -10 9 0 16 5 16 10 0 6 -4 10 -9 10 -6 0
-13 -4 -16 -10z"/>
<path d="M2340 3090 l0 -240 695 0 695 0 0 240 0 240 -695 0 -695 0 0 -240z
m810 223 c-1 -25 -14 -53 -24 -50 -19 7 -46 -13 -46 -34 0 -35 41 -44 115 -24
69 18 107 15 138 -12 36 -33 9 -74 -54 -82 -34 -5 -44 -10 -44 -25 0 -28 30
-44 54 -29 15 10 22 9 35 -6 9 -10 16 -25 16 -34 0 -9 5 -19 10 -22 8 -5 8
-11 1 -19 -6 -7 -8 -16 -5 -19 4 -3 3 -18 0 -32 -5 -18 -12 -25 -21 -21 -8 3
-15 1 -15 -5 0 -6 -7 -9 -15 -6 -8 4 -17 2 -20 -2 -7 -13 -54 11 -48 25 2 6
22 17 44 24 21 7 39 17 39 22 0 5 -4 6 -10 3 -6 -4 -10 5 -10 19 0 14 -4 26
-10 26 -5 0 -10 -4 -10 -9 0 -8 -38 -3 -87 13 -17 6 -23 3 -23 -9 0 -9 12 -18
30 -21 17 -4 30 -10 30 -13 0 -9 -48 -51 -58 -51 -4 0 -13 -9 -19 -20 -11 -16
-17 -17 -41 -9 -41 14 -38 49 5 49 43 0 50 16 14 34 -29 16 -29 16 -14 48 12
23 13 33 5 36 -7 2 -12 9 -12 17 0 7 -7 18 -15 25 -10 9 -15 9 -15 1 0 -6 5
-11 12 -11 6 0 8 -3 5 -7 -4 -3 -2 -12 4 -19 9 -11 5 -16 -17 -24 -20 -8 -30
-8 -32 -1 -5 14 -32 14 -32 1 0 -6 -10 -14 -22 -19 -28 -11 -63 -67 -48 -76
16 -10 12 -25 -7 -25 -10 0 -27 -7 -37 -15 -25 -19 -36 -19 -36 -1 0 10 -7 12
-22 8 -17 -4 -20 -2 -15 11 3 9 2 19 -4 22 -16 11 1 25 30 25 35 0 61 41 41
65 -7 8 -10 24 -7 35 4 17 0 20 -25 20 -18 0 -36 -7 -43 -17 -13 -17 -14 -17
-33 1 -12 10 -25 15 -31 11 -6 -3 -19 -2 -28 4 -16 9 -16 11 7 20 18 7 20 10
8 10 -21 1 -24 21 -4 21 8 0 16 6 19 13 3 9 12 8 37 -5 40 -23 120 -24 120 -3
0 8 -4 15 -10 15 -5 0 -10 -4 -10 -10 0 -5 -9 -10 -20 -10 -11 0 -20 5 -20 10
0 6 5 10 10 10 16 0 12 17 -5 24 -9 3 -25 0 -37 -7 -16 -9 -22 -9 -25 1 -3 6
-10 9 -16 6 -7 -3 7 13 30 35 35 34 49 41 82 41 69 0 114 -31 164 -112 15 -26
22 -29 49 -23 21 5 34 3 40 -6 7 -11 11 -11 15 -1 3 8 26 12 63 12 48 0 64 4
84 24 15 13 26 25 26 27 0 11 -78 7 -125 -6 -43 -13 -62 -14 -94 -5 -50 13
-78 49 -62 78 22 41 101 92 101 65z"/>
<path d="M3100 3290 c0 -5 5 -10 10 -10 6 0 10 5 10 10 0 6 -4 10 -10 10 -5 0
-10 -4 -10 -10z"/>
<path d="M2885 3210 c3 -5 8 -10 11 -10 2 0 4 5 4 10 0 6 -5 10 -11 10 -5 0
-7 -4 -4 -10z"/>
<path d="M2940 3204 c0 -9 5 -14 12 -12 18 6 21 28 4 28 -9 0 -16 -7 -16 -16z"/>
<path d="M2940 3160 c0 -5 5 -10 10 -10 6 0 10 5 10 10 0 6 -4 10 -10 10 -5 0
-10 -4 -10 -10z"/>
<path d="M2937 3114 c-8 -8 1 -24 14 -24 5 0 9 7 9 15 0 15 -12 20 -23 9z"/>
<path d="M3200 3110 c0 -5 5 -10 10 -10 6 0 10 5 10 10 0 6 -4 10 -10 10 -5 0
-10 -4 -10 -10z"/>
<path d="M3030 3096 c0 -9 7 -16 16 -16 17 0 14 22 -4 28 -7 2 -12 -3 -12 -12z"/>
<path d="M3160 3075 c0 -8 7 -15 15 -15 8 0 15 7 15 15 0 8 -7 15 -15 15 -8 0
-15 -7 -15 -15z"/>
<path d="M2920 3060 c0 -5 5 -10 10 -10 6 0 10 5 10 10 0 6 -4 10 -10 10 -5 0
-10 -4 -10 -10z"/>
<path d="M3200 3030 c0 -5 5 -10 10 -10 6 0 10 5 10 10 0 6 -4 10 -10 10 -5 0
-10 -4 -10 -10z"/>
<path d="M3305 3031 c-6 -11 9 -23 19 -14 9 9 7 23 -3 23 -6 0 -12 -4 -16 -9z"/>
<path d="M3120 3000 c0 -5 5 -10 10 -10 6 0 10 5 10 10 0 6 -4 10 -10 10 -5 0
-10 -4 -10 -10z"/>
<path d="M2910 2990 c0 -5 5 -10 11 -10 5 0 7 5 4 10 -3 6 -8 10 -11 10 -2 0
-4 -4 -4 -10z"/>
<path d="M2880 2919 c0 -5 5 -7 10 -4 6 3 10 8 10 11 0 2 -4 4 -10 4 -5 0 -10
-5 -10 -11z"/>
<path d="M2340 2813 c0 -47 8 -51 82 -40 71 11 57 13 288 -48 132 -34 271 -47
379 -35 48 5 153 30 236 56 176 53 267 64 335 40 66 -24 65 -24 68 17 l3 37
-695 0 -696 0 0 -27z"/>
<path d="M3400 2656 c-264 -73 -280 -76 -395 -76 -126 0 -211 14 -376 61 -91
26 -123 31 -176 26 -35 -2 -67 -8 -71 -11 -4 -4 7 -33 23 -64 23 -44 35 -56
50 -54 113 16 151 13 255 -21 225 -74 348 -75 562 -4 176 58 226 65 301 39
l58 -19 23 36 c31 51 48 92 41 100 -4 3 -52 7 -108 8 -82 2 -119 -2 -187 -21z"/>
<path d="M3280 2409 c-143 -47 -163 -51 -255 -52 -113 0 -180 11 -312 54 -65
22 -106 29 -143 27 l-52 -3 57 -43 c137 -100 278 -145 465 -144 185 0 316 42
459 147 48 35 60 49 50 56 -33 21 -117 7 -269 -42z"/>
<path d="M1507 3168 c-16 -12 0 -34 148 -213 213 -256 189 -234 222 -204 22
20 21 17 -7 -18 -18 -24 -31 -45 -28 -48 3 -3 38 22 79 56 56 47 67 60 49 57
-14 -1 -32 4 -40 13 -50 54 -389 369 -397 369 -5 0 -17 -6 -26 -12z"/>
<path d="M4410 3097 c-305 -296 -326 -313 -370 -297 -43 15 -67 4 -45 -20 9
-10 14 -24 10 -30 -10 -17 42 -78 86 -101 61 -31 66 -18 9 24 -36 27 -50 43
-46 54 5 13 4 13 -7 4 -11 -9 -17 -8 -26 3 -8 10 -9 16 -1 21 6 3 8 10 5 15
-3 5 -1 11 4 15 6 3 8 -4 6 -15 -3 -13 0 -18 7 -14 7 5 8 2 3 -5 -6 -10 -3
-11 14 -2 21 12 28 22 14 20 -25 -4 -36 2 -26 12 9 9 26 0 70 -38 77 -66 89
-73 73 -42 -7 13 -22 35 -34 49 l-21 25 28 -24 c24 -22 29 -23 41 -10 53 54
336 403 336 414 0 12 -21 25 -38 25 -4 0 -45 -37 -92 -83z m-390 -311 c-7 -7
-14 -6 -21 1 -9 9 -7 12 9 10 14 -1 18 -5 12 -11z"/>
<path d="M2009 2804 c-1 -2 -2 -9 -3 -14 -1 -13 -28 -30 -37 -24 -7 4 -24 -14
-24 -27 0 -4 -26 -28 -58 -53 -31 -26 -55 -51 -52 -56 8 -13 36 -1 68 28 20
19 24 28 15 35 -9 6 -8 7 4 3 9 -3 27 4 40 14 13 11 17 19 10 20 -7 0 -10 5
-7 11 4 6 14 8 22 5 9 -4 11 -2 7 6 -5 7 -3 8 6 3 9 -6 11 -4 5 6 -8 12 -6 12
8 0 13 -10 15 -17 6 -27 -9 -11 -15 -12 -26 -3 -11 9 -12 9 -7 -4 4 -11 -10
-27 -46 -54 -57 -42 -52 -55 9 -24 44 23 96 84 86 101 -4 6 1 20 11 31 9 10
15 20 13 20 -12 4 -49 6 -50 3z m40 -7 c-2 -2 -11 -8 -20 -15 -12 -9 -16 -9
-16 1 0 7 9 14 20 14 11 1 18 1 16 0z m-89 -71 c0 -2 -8 -10 -17 -17 -16 -13
-17 -12 -4 4 13 16 21 21 21 13z m-50 -40 c0 -2 -17 -16 -37 -31 l-38 -26 35
30 c34 31 40 35 40 27z"/>
<path d="M4079 2754 c-1 -5 -1 -12 0 -16 0 -5 -5 -8 -11 -8 -15 0 87 -92 113
-102 40 -16 26 13 -28 58 -32 25 -58 50 -58 54 0 12 -15 25 -16 14z m121 -120
c0 -3 -27 16 -60 41 -33 25 -60 48 -60 51 0 3 27 -16 60 -41 33 -25 60 -48 60
-51z"/>
<path d="M1987 2665 c-43 -37 -43 -36 12 -102 l35 -43 26 22 c14 13 19 16 13
8 -7 -8 -13 -17 -13 -22 0 -4 44 -61 99 -126 86 -104 97 -121 86 -136 -12 -16
-16 -16 -44 -2 -41 22 -54 20 -82 -10 -13 -14 -59 -51 -102 -82 -53 -38 -73
-58 -65 -64 10 -6 10 -8 -1 -8 -10 0 -8 -7 9 -24 14 -16 20 -31 16 -42 -6 -16
-8 -16 -21 3 -27 38 -39 111 -26 154 29 96 141 164 232 141 21 -5 39 -7 39 -4
0 3 -16 25 -37 50 -34 42 -38 44 -78 40 -89 -11 -169 -69 -217 -161 -35 -65
-32 -176 5 -239 15 -26 27 -48 27 -51 0 -2 -63 -59 -140 -127 -77 -68 -140
-129 -140 -135 0 -14 42 -55 56 -55 6 0 93 74 194 164 l184 164 80 -76 c44
-43 95 -91 113 -109 37 -35 43 -73 16 -94 -15 -11 -16 -11 -5 1 17 20 15 54
-6 80 l-18 23 -80 -32 c-99 -40 -97 -38 -110 -86 -6 -22 -15 -49 -19 -59 -8
-18 -5 -19 31 -12 21 4 55 10 75 12 82 9 173 65 205 126 18 34 18 95 0 129
-12 23 -3 20 73 -28 47 -30 120 -72 161 -93 80 -40 300 -130 318 -130 6 0 13
8 15 18 2 9 3 6 2 -8 -1 -14 -5 -32 -9 -41 -6 -13 5 -20 58 -34 77 -21 178
-17 223 10 l29 17 -2 112 c-1 108 -1 108 5 24 l6 -87 118 49 c140 58 226 104
379 203 105 69 170 107 158 94 -3 -3 -39 -28 -81 -55 -66 -43 -77 -55 -83 -86
-10 -54 9 -110 51 -146 42 -38 112 -69 162 -74 20 -2 55 -7 79 -11 l43 -8 -14
34 c-8 19 -19 47 -23 63 -8 24 -22 33 -94 62 -79 31 -86 32 -105 17 -11 -9 27
29 85 85 103 99 120 112 120 92 0 -5 -6 -10 -13 -10 -7 0 -33 -21 -57 -46
l-45 -46 61 5 c33 3 75 12 92 21 l31 16 140 -125 c77 -69 146 -125 154 -125
20 0 58 45 52 61 -4 8 -76 75 -161 149 -85 74 -154 137 -154 139 0 2 7 -3 16
-10 14 -11 18 -10 31 6 77 101 56 256 -48 349 -48 43 -120 76 -166 76 -15 0
-36 -14 -56 -36 -52 -59 -52 -63 -7 -53 52 12 124 -4 167 -37 67 -51 92 -153
56 -229 -19 -39 -34 -44 -54 -17 -12 15 -12 16 2 4 14 -10 19 -8 35 15 10 16
19 33 20 40 1 6 -26 31 -59 54 -34 23 -81 60 -104 82 l-42 40 -40 -15 c-35
-14 -42 -14 -52 -2 -14 16 -21 11 -41 -27 -26 -50 -392 -283 -495 -316 -41
-13 -53 -21 -53 -37 -1 -16 -4 -14 -15 11 -22 51 -75 71 -75 29 0 -18 7 -26
23 -29 17 -3 15 -5 -8 -6 -30 -1 -30 0 -27 40 5 52 -5 59 -85 59 l-63 0 0 -40
0 -39 68 -4 67 -3 -76 -2 -76 -2 5 25 c5 29 -4 31 -36 9 -17 -12 -21 -23 -18
-52 2 -20 2 -29 -1 -20 -6 23 -20 32 -88 52 -33 10 -89 33 -125 51 -66 33
-422 265 -407 265 4 0 33 -16 64 -36 30 -19 58 -33 60 -30 10 10 -19 93 -45
133 -34 50 -232 283 -241 283 -4 0 -13 -6 -21 -12 -8 -7 -5 -2 8 13 l22 25
-48 47 c-26 26 -50 47 -52 47 -3 -1 -22 -16 -43 -35z m145 -496 c-1 -13 -5
-31 -8 -39 -4 -13 -7 -12 -15 3 -6 9 -20 17 -32 17 -21 1 -20 2 8 25 35 29 51
27 47 -6z m1757 14 c-12 -15 -12 -16 4 -10 19 7 24 -8 5 -17 -7 -4 -3 -4 10
-2 26 5 28 -2 5 -20 -15 -11 -21 -9 -40 8 -22 20 -22 23 -6 40 20 23 40 24 22
1z m-1720 -44 c-7 -15 -7 -24 2 -35 14 -17 5 -18 -22 -4 -19 11 -19 12 -2 40
18 32 39 31 22 -1z m1691 -9 c21 -21 19 -24 -15 -20 -16 2 -17 0 -6 -14 11
-14 11 -16 -3 -16 -9 0 -16 -4 -16 -10 0 -5 -7 -10 -15 -10 -7 0 -18 -8 -24
-17 -8 -16 -11 -15 -20 10 -19 49 -11 58 31 36 27 -15 35 -3 14 20 -17 18 -17
20 1 30 25 15 30 14 53 -9z m-1637 -30 c-17 -30 -33 -39 -33 -20 0 18 24 50
38 50 10 0 9 -8 -5 -30z m63 -6 c18 -14 18 -15 -6 -8 -23 6 -24 6 -10 -11 14
-17 13 -17 -10 -11 -23 6 -23 6 -7 -7 32 -26 17 -37 -17 -12 -17 13 -18 18 -6
40 15 29 28 31 56 9z m-276 -9 c14 -8 21 -14 15 -14 -5 0 -21 6 -35 14 -14 8
-20 14 -15 14 6 0 21 -6 35 -14z m2060 0 c-14 -8 -29 -14 -35 -14 -5 0 1 6 15
14 14 8 30 14 35 14 6 0 -1 -6 -15 -14z m-1740 -32 c0 -13 3 -13 15 -3 23 19
20 -12 -4 -41 l-19 -24 -7 28 c-6 21 -10 25 -16 16 -4 -7 -11 -10 -15 -7 -10
10 25 60 36 53 6 -4 10 -13 10 -22z m1414 -8 c10 -39 -1 -48 -35 -28 -28 17
-38 33 -20 33 6 0 13 -4 16 -10 11 -18 26 -10 20 10 -3 11 -2 20 3 20 6 0 13
-11 16 -25z m-1584 -41 c0 -2 -9 0 -21 6 -17 9 -25 8 -42 -7 -22 -18 -22 -18
-4 3 9 11 14 24 10 29 -5 4 7 0 25 -9 17 -9 32 -19 32 -22z m250 -9 c0 -34
-12 -46 -25 -25 -3 6 -16 10 -27 10 -21 0 -21 0 2 25 33 35 50 32 50 -10z
m1530 30 c0 -2 -10 -9 -22 -15 -22 -11 -22 -10 -4 4 21 17 26 19 26 11z m-242
-33 c9 9 12 9 12 0 0 -6 -9 -16 -19 -22 -16 -8 -23 -6 -35 12 -24 33 -19 45 7
20 18 -17 26 -19 35 -10z m-1488 -18 c0 -2 -9 0 -20 6 -11 6 -20 13 -20 16 0
2 9 0 20 -6 11 -6 20 -13 20 -16z m252 1 c-3 -16 -1 -17 12 -6 25 21 38 4 21
-30 -18 -34 -30 -38 -22 -8 4 17 3 19 -6 10 -16 -16 -27 -14 -27 7 0 14 -2 15
-10 2 -5 -8 -12 -11 -16 -8 -10 11 25 60 39 55 7 -2 10 -12 9 -22z m1173 -1
c22 -15 38 -43 16 -30 -5 3 -24 -8 -42 -24 -39 -34 -45 -35 -65 -16 -18 19
-18 30 1 46 12 10 19 8 36 -11 l20 -24 -5 31 c-7 46 1 53 39 28z m-1340 -49
c11 -9 2 -7 -20 6 -22 12 -44 26 -50 32 -16 15 48 -20 70 -38z m265 -2 c1 -27
1 -27 15 -9 8 11 18 16 22 13 9 -9 -37 -58 -48 -51 -12 7 -11 74 1 74 6 0 10
-12 10 -27z m60 -43 c-7 -16 -17 -30 -22 -30 -11 0 -1 38 15 58 16 21 21 5 7
-28z m66 5 c16 -12 17 -14 2 -15 -9 0 -20 -9 -23 -20 -10 -32 -24 -23 -22 15
2 38 13 43 43 20z m811 -5 c20 -16 27 -29 9 -17 -2 1 -13 -6 -24 -16 -19 -17
-20 -17 -26 5 -14 53 -1 62 41 28z m-59 -25 c16 -36 15 -38 -13 -31 -19 5 -23
3 -19 -9 10 -26 -12 -16 -25 11 -15 33 -7 42 20 25 19 -11 20 -10 14 8 -9 30
10 26 23 -4z m-698 -27 c0 -40 -1 -41 -19 -24 -11 10 -25 15 -30 11 -19 -11
-12 8 11 32 30 33 38 29 38 -19z m56 8 c3 -8 13 -12 26 -8 19 5 20 2 14 -24
-9 -35 -26 -56 -26 -31 0 10 -5 14 -15 11 -10 -4 -15 0 -15 12 0 16 -2 16 -10
4 -15 -23 -22 -5 -9 24 13 29 27 33 35 12z m573 -14 c13 -24 0 -42 -30 -46
-13 -1 -37 -8 -52 -16 -24 -12 -30 -12 -38 1 -17 26 -6 54 21 54 14 0 25 -5
25 -12 0 -6 3 -15 8 -19 4 -4 7 4 7 18 0 13 3 28 7 31 13 13 42 7 52 -11z
m-452 -99 c-2 -21 -4 -4 -4 37 0 41 2 58 4 38 2 -21 2 -55 0 -75z m123 47 c0
-5 -12 -11 -27 -11 -21 -1 -23 -2 -8 -6 34 -8 41 -23 12 -23 -15 0 -27 -4 -27
-10 0 -5 11 -10 25 -10 14 0 25 -4 25 -10 0 -5 -16 -10 -35 -10 -35 0 -35 0
-35 45 0 45 0 45 35 45 19 0 35 -4 35 -10z m100 0 c0 -5 -7 -10 -15 -10 -10 0
-15 -11 -15 -35 0 -24 -5 -35 -15 -35 -10 0 -15 11 -15 35 0 24 -5 35 -15 35
-8 0 -15 5 -15 10 0 6 20 10 45 10 25 0 45 -4 45 -10z m644 -27 c-6 -24 4 -36
46 -62 19 -11 31 -21 26 -21 -5 0 -24 9 -42 20 -33 21 -50 51 -39 70 9 15 14
12 9 -7z m-1558 -68 c-11 -8 -25 -15 -30 -15 -6 1 0 7 14 15 32 19 40 18 16 0z"/>
<path d="M3560 1909 c0 -5 5 -7 10 -4 6 3 10 8 10 11 0 2 -4 4 -10 4 -5 0 -10
-5 -10 -11z"/>
<path d="M3326 1822 c-2 -4 -1 -14 4 -21 10 -17 31 -5 23 14 -6 16 -19 20 -27
7z"/>
<path d="M3956 2651 l-47 -48 48 -41 c54 -47 42 -50 107 32 l29 36 -39 35
c-22 19 -41 34 -44 35 -3 0 -27 -22 -54 -49z"/>
<path d="M3805 2449 c-60 -72 -118 -143 -128 -158 -20 -30 -52 -130 -43 -138
11 -11 107 60 123 91 9 17 37 54 62 82 25 28 73 83 105 123 l59 72 -28 29
c-16 17 -31 30 -34 30 -3 0 -55 -59 -116 -131z"/>
<path d="M2417 2193 c3 -27 16 -47 41 -70 21 -18 40 -33 45 -33 4 0 -14 32
-39 70 -26 39 -48 70 -50 70 -1 0 0 -17 3 -37z"/>
<path d="M3602 2177 c-11 -19 -28 -46 -38 -62 l-18 -28 36 24 c29 19 37 31 40
61 2 21 3 38 2 38 -1 0 -11 -15 -22 -33z"/>
<path d="M2902 2069 c-29 -11 -76 -42 -105 -69 l-52 -49 40 -16 c29 -13 43
-14 55 -6 53 38 121 71 157 77 60 9 137 -13 190 -53 41 -32 47 -33 79 -23 18
6 36 16 40 21 9 15 -60 76 -120 106 -71 37 -206 43 -284 12z"/>
<path d="M2005 1920 l-28 -29 29 -12 c16 -7 58 -14 94 -16 l65 -5 -50 46 c-27
25 -57 45 -66 46 -8 0 -28 -13 -44 -30z"/>
<path d="M3303 1665 c-28 -13 -57 -34 -64 -47 -16 -31 -49 -56 -81 -63 -23 -5
-28 -12 -28 -35 0 -16 -3 -35 -6 -44 -17 -45 115 13 170 74 43 48 92 140 74
139 -7 0 -36 -11 -65 -24z"/>
<path d="M2710 1668 c0 -27 61 -117 98 -147 44 -34 117 -70 145 -71 14 0 17 9
17 44 0 41 -2 45 -30 51 -17 4 -54 28 -83 54 -28 26 -71 55 -95 64 -51 20 -52
20 -52 5z"/>
<path d="M2987 1378 c2 -90 6 -178 9 -195 5 -32 6 -33 53 -33 48 0 48 0 55 38
3 20 6 108 6 195 l0 157 -63 0 -64 0 4 -162z"/>
<path d="M1427 5194 c-54 -39 -75 -60 -69 -67 5 -7 53 -73 107 -147 54 -74 99
-137 101 -138 4 -5 164 111 164 119 0 3 -9 14 -20 24 -18 17 -21 16 -69 -19
l-50 -37 -25 34 c-14 19 -26 39 -26 45 0 6 20 25 45 43 36 26 43 35 35 50 -17
31 -26 30 -73 -6 -25 -19 -48 -35 -51 -35 -2 0 -15 17 -27 37 l-23 37 28 20
c68 50 72 54 60 72 -6 10 -15 19 -20 21 -5 2 -44 -22 -87 -53z"/>
<path d="M4570 5152 c-23 -11 -39 -29 -49 -54 -13 -36 -12 -41 20 -103 38 -74
34 -98 -17 -103 -22 -2 -37 5 -63 32 -33 34 -36 35 -53 19 -25 -22 -23 -35 10
-65 80 -75 177 -75 217 2 20 39 20 43 -16 122 -26 56 -30 70 -19 83 20 24 56
18 93 -15 34 -29 34 -30 52 -10 18 20 18 21 -6 46 -25 27 -92 63 -119 64 -8 0
-31 -8 -50 -18z"/>
<path d="M1169 4971 c-24 -16 -63 -48 -86 -72 l-42 -44 129 -135 130 -135 63
66 c95 98 107 173 44 262 -61 88 -156 111 -238 58z m120 -56 c38 -19 78 -68
86 -104 8 -37 -17 -93 -50 -115 -22 -15 -25 -13 -106 76 l-83 90 37 34 c40 37
72 42 116 19z"/>
<path d="M4850 4768 c-85 -50 -157 -92 -159 -94 -6 -6 29 -54 40 -54 5 0 52
27 105 60 52 33 97 60 99 60 2 0 -27 -48 -65 -106 l-69 -107 20 -28 c11 -16
22 -29 23 -29 1 0 57 22 125 49 138 55 137 59 12 -71 l-64 -66 24 -33 23 -33
45 51 c25 28 83 91 128 140 l82 90 -27 32 -27 32 -106 -40 c-59 -21 -117 -45
-129 -51 -27 -14 -30 -21 62 118 l69 103 -26 35 c-14 19 -27 34 -28 33 -1 0
-72 -41 -157 -91z"/>
<path d="M829 4567 c-65 -44 -98 -119 -85 -193 14 -70 132 -164 209 -164 68 0
142 69 161 153 17 71 -41 163 -129 203 -64 30 -113 30 -156 1z m148 -82 c77
-46 94 -129 36 -175 -32 -25 -73 -26 -122 0 -54 27 -81 64 -81 112 0 83 80
113 167 63z"/>
<path d="M5142 4360 l-152 -91 15 -29 c9 -17 18 -30 21 -30 6 0 295 169 307
180 10 9 -13 60 -27 60 -6 0 -80 -41 -164 -90z"/>
<path d="M5335 4271 c-27 -16 -99 -54 -158 -85 l-108 -58 41 -76 c23 -42 45
-81 49 -85 4 -4 18 1 31 11 l24 19 -27 46 c-15 25 -27 48 -27 51 0 3 50 31
112 62 163 82 161 80 142 115 -8 16 -18 29 -22 28 -4 0 -29 -13 -57 -28z"/>
<path d="M629 4223 c-26 -22 -96 -150 -87 -158 7 -7 327 -145 335 -145 5 0 14
14 20 31 l12 30 -59 26 -58 25 14 41 c24 69 -2 138 -63 163 -48 21 -78 17
-114 -13z m113 -76 c10 -16 10 -59 -1 -76 -7 -11 -19 -9 -65 12 -51 24 -56 28
-46 46 18 35 49 51 79 40 14 -6 29 -16 33 -22z"/>
<path d="M5335 3984 c-87 -36 -161 -67 -164 -69 -3 -4 19 -65 24 -65 1 0 69
27 151 61 82 34 159 65 171 69 20 8 21 12 10 39 -6 17 -16 31 -22 31 -5 -1
-82 -30 -170 -66z"/>
<path d="M496 3907 c-23 -23 -65 -120 -69 -160 -2 -17 20 -27 171 -78 l173
-58 10 26 c15 39 7 47 -60 68 -34 10 -61 21 -61 25 0 4 15 11 34 14 19 4 57
13 84 21 44 13 52 20 62 51 7 19 10 37 7 40 -2 3 -40 -7 -83 -21 -98 -31 -104
-31 -104 1 0 36 -16 61 -50 79 -43 22 -87 19 -114 -8z m102 -69 c15 -15 16
-74 1 -83 -19 -12 -99 16 -99 34 0 48 66 81 98 49z"/>
<path d="M5523 3904 c-9 -4 -8 -16 2 -50 7 -24 10 -46 7 -48 -4 -2 -69 -22
-145 -44 -76 -22 -141 -42 -143 -45 -3 -2 1 -18 8 -35 l13 -30 95 28 c52 15
119 34 147 43 l53 16 11 -45 c12 -45 27 -54 58 -35 22 14 -47 245 -75 248 -10
1 -24 0 -31 -3z"/>
<path d="M429 3567 c-45 -30 -69 -80 -69 -145 0 -63 18 -102 62 -135 90 -66
221 -62 276 8 74 93 39 224 -73 276 -59 27 -152 25 -196 -4z m147 -58 c86 -22
123 -111 69 -164 -45 -46 -170 -30 -209 27 -33 47 -15 111 37 133 40 17 47 18
103 4z"/>
<path d="M5285 3548 c4 -18 8 -33 9 -34 0 0 19 -5 41 -10 39 -9 39 -9 51 -74
12 -69 8 -80 -39 -96 -16 -5 -18 -12 -12 -42 4 -21 8 -38 10 -40 2 -2 78 40
169 93 174 101 178 106 157 160 -7 17 -32 23 -182 47 -226 35 -212 35 -204 -4z
m269 -74 c28 -6 27 -7 -35 -44 -35 -20 -65 -36 -66 -35 -2 1 -7 23 -12 49 l-9
48 47 -6 c25 -4 59 -9 75 -12z"/>
<path d="M5423 3213 l-83 -4 0 -34 0 -34 76 -3 77 -3 -71 -50 c-70 -49 -72
-51 -72 -92 0 -24 3 -43 6 -43 3 0 38 25 77 55 74 58 87 64 87 41 0 -28 59
-66 101 -66 74 0 103 53 97 175 l-3 60 -105 1 c-58 0 -142 -1 -187 -3z m237
-97 c0 -61 -50 -86 -90 -46 -19 19 -27 60 -13 73 3 4 28 7 55 7 l48 0 0 -34z"/>
<path d="M336 3174 c-11 -28 -6 -114 8 -147 25 -62 102 -107 181 -107 123 0
197 87 180 211 -7 47 -8 49 -40 49 l-33 0 5 -44 c3 -25 3 -56 -1 -71 -15 -59
-127 -85 -194 -45 -40 25 -55 62 -47 116 5 37 4 42 -17 48 -33 8 -35 8 -42
-10z"/>
<path d="M569 2348 c-14 -5 -32 -21 -38 -35 -26 -56 32 -116 89 -93 84 35 35
158 -51 128z"/>
<path d="M5445 2350 c-53 -20 -60 -88 -13 -123 27 -20 29 -20 63 -4 39 18 51
49 36 89 -11 29 -56 49 -86 38z"/>
<path d="M990 1580 c-78 -46 -134 -85 -132 -92 2 -7 9 -19 17 -27 12 -12 27
-6 104 42 50 31 91 55 91 52 0 -2 -27 -46 -60 -97 l-61 -92 23 -23 24 -23 99
40 c54 22 100 38 102 36 2 -2 -28 -38 -68 -80 -70 -75 -71 -76 -55 -101 9 -14
20 -25 24 -25 4 0 56 54 115 120 91 100 106 122 98 138 -23 42 -33 43 -131 6
-52 -20 -103 -40 -113 -46 -23 -12 -25 -15 55 104 32 48 58 91 58 96 0 9 -43
52 -51 52 -2 -1 -65 -37 -139 -80z"/>
<path d="M4704 1419 l-19 -22 120 -113 120 -114 56 63 c57 62 57 62 38 82 -20
20 -20 20 -55 -18 l-35 -38 -37 30 c-20 16 -64 57 -97 90 -33 34 -62 61 -66
61 -3 0 -14 -10 -25 -21z"/>
<path d="M4627 1343 c-15 -17 -11 -24 63 -111 86 -99 95 -125 58 -159 -52 -46
-68 -39 -167 75 -40 45 -76 82 -80 82 -5 0 -16 -9 -25 -19 -17 -19 -15 -23 59
-108 117 -134 139 -143 216 -94 55 34 84 87 75 136 -7 33 -145 207 -170 213
-7 1 -20 -5 -29 -15z"/>
<path d="M1267 1253 l-147 -76 21 -23 c20 -22 24 -22 50 -9 37 20 38 20 86
-24 l43 -39 -15 -34 c-13 -34 -13 -36 10 -58 14 -13 26 -22 28 -19 2 2 34 75
72 161 l68 158 -24 19 c-13 11 -28 20 -34 20 -5 0 -76 -34 -158 -76z m105 -62
l-27 -59 -29 22 c-17 13 -31 27 -33 32 -3 8 89 62 109 63 4 1 -5 -26 -20 -58z"/>
<path d="M1507 1226 c-15 -22 -14 -24 14 -45 16 -12 29 -25 29 -30 0 -5 -36
-55 -80 -112 -79 -103 -79 -104 -59 -121 12 -10 24 -18 28 -18 6 0 87 103 157
199 10 13 16 12 47 -12 l35 -27 15 24 c15 23 14 24 -78 94 l-93 71 -15 -23z"/>
<path d="M4379 1145 c-70 -45 -90 -116 -47 -170 21 -27 23 -27 98 -21 63 5 80
3 90 -9 19 -23 -1 -58 -44 -79 -40 -19 -42 -23 -22 -49 17 -22 42 -13 93 36
55 51 53 127 -2 163 -23 15 -34 16 -88 6 -65 -12 -87 -5 -87 28 0 17 21 38 64
65 14 9 14 12 -2 32 l-17 21 -36 -23z"/>
<path d="M1659 1037 c-67 -45 -107 -133 -89 -199 19 -67 109 -118 184 -104 71
14 146 110 146 188 0 106 -149 177 -241 115z m149 -60 c57 -53 -11 -187 -96
-187 -13 0 -37 14 -54 30 -25 26 -29 36 -24 62 9 47 46 99 80 114 36 15 62 10
94 -19z"/>
<path d="M4056 947 c-86 -49 -108 -132 -59 -226 37 -72 71 -96 132 -95 63 1
114 32 140 88 28 57 26 92 -6 157 -48 94 -125 123 -207 76z m108 -58 c87 -68
70 -199 -25 -199 -44 0 -81 37 -100 99 -14 46 2 88 41 108 35 18 53 16 84 -8z"/>
<path d="M2029 847 c-70 -47 -101 -156 -64 -227 22 -43 95 -82 157 -84 l51 -1
25 68 c21 58 23 70 11 78 -31 20 -47 9 -64 -41 -18 -54 -29 -59 -75 -35 -37
19 -50 43 -50 92 0 110 111 155 204 82 25 -20 25 -20 36 1 17 31 6 48 -42 70
-61 28 -145 27 -189 -3z"/>
<path d="M3740 819 c-30 -10 -58 -23 -63 -28 -8 -8 76 -285 92 -303 3 -4 30 0
58 8 141 41 190 134 135 256 -38 85 -109 107 -222 67z m144 -69 c29 -36 43
-92 30 -129 -9 -26 -66 -71 -90 -71 -7 0 -28 46 -48 106 l-35 105 22 9 c12 5
38 9 59 9 29 1 42 -5 62 -29z"/>
<path d="M2315 798 c-13 -38 -83 -303 -81 -306 2 -2 16 -4 32 -5 27 -2 29 2
44 57 18 67 19 67 49 -26 14 -41 29 -69 39 -72 9 -2 27 -7 39 -11 l23 -6 -26
68 c-40 103 -40 103 -12 103 55 0 95 65 75 123 -10 29 -56 58 -112 71 -16 4
-38 9 -48 12 -9 3 -19 -1 -22 -8z m105 -78 c24 -24 24 -29 4 -58 -15 -22 -48
-29 -71 -14 -9 6 -9 18 -1 50 12 48 35 55 68 22z"/>
<path d="M3374 726 c-86 -38 -115 -154 -63 -257 34 -67 129 -89 203 -46 52 29
77 73 78 136 0 69 -17 115 -58 151 -28 24 -43 30 -82 30 -26 -1 -61 -7 -78
-14z m113 -61 c27 -19 47 -86 38 -131 -10 -58 -75 -91 -127 -63 -24 13 -48 67
-48 109 0 35 23 86 42 93 26 11 74 6 95 -8z"/>
<path d="M2579 707 c-46 -30 -79 -98 -79 -162 0 -91 57 -147 151 -147 92 0
151 62 157 167 5 74 -13 116 -61 145 -45 28 -124 27 -168 -3z m120 -42 c16 -8
31 -22 35 -30 11 -30 6 -105 -9 -134 -27 -54 -108 -64 -140 -18 -20 29 -19
112 2 147 28 47 66 59 112 35z"/>
<path d="M2881 696 c-45 -25 -65 -93 -38 -130 7 -10 35 -30 62 -44 52 -28 65
-52 44 -79 -10 -12 -26 -14 -66 -10 -53 6 -53 5 -53 -23 0 -25 4 -29 39 -35
48 -8 112 8 135 34 24 26 31 91 14 114 -8 10 -36 31 -63 45 -81 44 -67 97 23
90 34 -3 37 -1 37 22 0 23 -4 25 -55 27 -32 2 -65 -3 -79 -11z"/>
<path d="M3114 700 c-32 -13 -54 -50 -54 -91 0 -42 23 -67 82 -89 87 -32 77
-83 -16 -88 -56 -3 -57 -4 -54 -30 3 -24 8 -27 42 -30 95 -8 170 57 150 129
-7 27 -19 39 -60 59 -55 27 -84 48 -84 61 0 21 35 39 76 39 40 0 44 2 44 25 0
24 -3 25 -52 24 -29 0 -63 -4 -74 -9z"/>
<path d="M1669 5725 c-42 -15 -119 -64 -119 -75 0 -4 17 -10 38 -13 20 -3 70
-13 111 -22 59 -13 84 -14 125 -5 52 11 136 54 136 70 0 4 -35 20 -78 34 -85
29 -156 32 -213 11z"/>
<path d="M4365 5640 c24 -55 52 -110 62 -124 37 -49 163 -117 163 -88 0 6 -12
48 -26 92 -31 100 -74 151 -159 192 -33 15 -65 28 -71 28 -7 0 7 -43 31 -100z"/>
<path d="M1445 5596 c-50 -23 -115 -71 -115 -85 0 -4 19 -8 43 -10 23 -1 69
-6 102 -9 89 -11 150 2 213 44 63 42 62 45 -39 69 -90 21 -146 19 -204 -9z"/>
<path d="M4587 5518 c18 -56 44 -119 58 -139 23 -36 89 -88 129 -103 17 -6 18
-2 12 46 -17 139 -63 212 -164 266 -33 18 -62 32 -64 32 -2 0 11 -46 29 -102z"/>
<path d="M1235 5456 c-28 -14 -68 -44 -90 -66 l-39 -40 84 -2 c182 -5 219 4
290 68 41 37 41 38 18 47 -12 5 -66 11 -118 14 -88 4 -99 3 -145 -21z"/>
<path d="M4776 5458 c4 -12 17 -65 29 -115 25 -107 56 -159 119 -202 25 -17
47 -31 50 -31 11 0 6 95 -8 153 -22 93 -73 153 -174 206 -22 12 -23 11 -16
-11z"/>
<path d="M1078 5314 c-33 -10 -65 -32 -103 -68 -30 -30 -55 -58 -55 -63 0 -4
51 -5 113 -2 133 7 181 25 245 91 l43 45 -53 6 c-80 10 -138 7 -190 -9z"/>
<path d="M4985 5288 c2 -13 9 -61 15 -108 6 -47 20 -104 31 -127 20 -41 101
-123 122 -123 6 0 8 36 5 93 -5 122 -36 190 -112 247 -61 46 -68 48 -61 18z"/>
<path d="M907 5145 c-55 -20 -91 -49 -131 -104 -20 -27 -36 -51 -36 -53 0 -2
52 3 115 13 130 19 183 44 234 108 17 21 31 42 31 45 0 12 -176 4 -213 -9z"/>
<path d="M5175 5083 c3 -27 7 -80 9 -120 3 -44 12 -86 25 -112 21 -40 84 -111
100 -111 12 0 23 143 15 188 -10 57 -40 109 -91 158 -26 24 -50 44 -54 44 -5
0 -6 -21 -4 -47z"/>
<path d="M854 4980 c-76 -8 -155 -38 -192 -72 -28 -27 -86 -117 -80 -124 5 -4
80 11 183 37 57 15 110 54 145 107 30 45 37 63 23 61 -5 -1 -40 -5 -79 -9z"/>
<path d="M5345 4806 c0 -109 3 -137 19 -166 23 -43 75 -110 85 -110 10 0 31
125 31 182 0 50 -27 114 -71 169 -61 77 -64 73 -64 -75z"/>
<path d="M680 4781 c-92 -21 -128 -39 -169 -86 -27 -31 -81 -124 -81 -140 0
-3 9 -1 19 5 11 5 57 21 103 36 45 14 100 37 120 50 37 24 108 117 108 141 0
16 -6 16 -100 -6z"/>
<path d="M5494 4653 c-19 -176 -8 -235 59 -317 l24 -29 18 64 c11 35 19 96 19
134 1 59 -4 78 -28 122 -16 28 -41 63 -56 78 l-27 26 -9 -78z"/>
<path d="M545 4571 c-77 -22 -113 -42 -152 -83 -30 -31 -90 -145 -81 -153 2
-3 47 12 99 33 74 29 104 47 144 87 28 27 58 69 67 93 20 50 18 51 -77 23z"/>
<path d="M5640 4493 c0 -12 -9 -61 -21 -110 -26 -109 -21 -162 22 -244 37 -69
38 -69 75 46 38 118 21 210 -55 305 -20 24 -21 25 -21 3z"/>
<path d="M422 4351 c-90 -36 -134 -69 -166 -124 -26 -45 -52 -124 -44 -132 8
-8 179 84 212 114 27 25 86 133 86 159 0 16 -4 16 -88 -17z"/>
<path d="M5731 4163 c-27 -86 -33 -117 -28 -162 4 -50 42 -151 56 -151 4 0 22
35 41 78 46 103 49 190 7 272 -16 30 -31 58 -35 62 -4 4 -22 -41 -41 -99z"/>
<path d="M318 4119 c-42 -21 -93 -54 -112 -73 -35 -35 -69 -111 -79 -178 l-5
-36 81 51 c108 70 150 113 176 183 35 93 29 99 -61 53z"/>
<path d="M5822 3925 c-33 -80 -43 -121 -43 -162 0 -51 27 -153 41 -153 10 0
77 122 90 164 17 52 8 139 -22 205 l-23 54 -43 -108z"/>
<path d="M236 3883 c-114 -69 -154 -131 -169 -260 -5 -40 4 -56 18 -33 3 5 41
36 83 69 55 41 85 73 105 109 27 50 48 153 31 151 -5 0 -35 -16 -68 -36z"/>
<path d="M5881 3660 c-51 -105 -53 -112 -49 -177 3 -37 10 -81 17 -97 l11 -29
41 56 c57 81 79 133 79 196 0 52 -27 161 -40 161 -4 0 -30 -49 -59 -110z"/>
<path d="M174 3636 c-112 -81 -148 -147 -142 -258 l3 -57 83 79 c51 49 90 97
102 123 20 47 36 157 23 157 -5 0 -36 -20 -69 -44z"/>
<path d="M5939 3434 c-31 -49 -62 -107 -69 -128 -13 -40 -10 -170 5 -184 11
-10 92 85 120 142 28 56 33 150 12 220 l-12 39 -56 -89z"/>
<path d="M121 3374 c-94 -87 -110 -123 -111 -234 l0 -85 70 75 c94 100 122
158 118 246 l-3 66 -74 -68z"/>
<path d="M5975 3195 c-91 -120 -109 -160 -109 -242 0 -40 3 -75 7 -79 12 -13
116 97 142 150 20 40 25 64 24 120 -1 39 -4 81 -7 94 -6 20 -12 16 -57 -43z"/>
<path d="M105 3128 c-32 -35 -67 -83 -78 -108 -21 -47 -27 -126 -13 -193 l7
-37 66 87 c36 49 72 103 80 122 16 37 19 169 5 183 -6 6 -32 -16 -67 -54z"/>
<path d="M5956 2913 c-37 -41 -77 -95 -88 -120 -20 -45 -30 -154 -16 -169 4
-4 37 19 72 50 88 77 116 134 116 238 0 43 -3 78 -7 77 -5 0 -39 -34 -77 -76z"/>
<path d="M111 2877 c-28 -36 -59 -82 -67 -104 -20 -47 -22 -121 -5 -192 12
-46 15 -51 24 -35 6 11 32 52 59 93 26 40 53 92 59 115 12 45 7 162 -9 178 -6
6 -27 -14 -61 -55z"/>
<path d="M5928 2650 c-94 -93 -115 -130 -125 -224 -7 -67 -13 -67 83 0 101 71
140 149 132 264 l-3 45 -87 -85z"/>
<path d="M130 2615 c-27 -42 -52 -92 -56 -111 -9 -50 0 -143 19 -188 l17 -38
51 101 c34 67 54 118 57 150 5 51 -13 147 -29 157 -5 3 -31 -29 -59 -71z"/>
<path d="M5910 2418 c-126 -96 -157 -140 -167 -235 l-6 -54 59 33 c89 50 150
115 169 182 9 30 15 71 13 89 l-3 34 -65 -49z"/>
<path d="M175 2357 c-46 -90 -47 -97 -43 -163 3 -42 13 -90 27 -122 l24 -52
34 82 c46 111 53 135 53 190 0 45 -23 134 -40 151 -4 4 -29 -34 -55 -86z"/>
<path d="M5850 2174 c-104 -67 -157 -119 -180 -181 -19 -51 -26 -93 -15 -93
23 0 168 86 192 113 36 41 75 139 71 176 l-3 26 -65 -41z"/>
<path d="M250 2128 c-21 -47 -34 -95 -38 -135 -4 -57 -1 -69 33 -140 21 -43
39 -73 40 -68 2 6 18 56 36 113 25 81 31 114 26 155 -5 50 -43 147 -58 147 -3
0 -21 -33 -39 -72z"/>
<path d="M362 1954 c-20 -38 -52 -157 -52 -193 0 -20 4 -51 10 -70 10 -36 70
-141 80 -141 3 0 11 28 18 63 6 34 16 85 22 112 13 61 5 116 -26 175 -38 73
-40 76 -52 54z"/>
<path d="M5745 1920 c-111 -60 -158 -104 -185 -177 -11 -31 -19 -59 -18 -64 6
-16 170 59 205 93 40 38 78 108 88 161 4 20 6 37 4 36 -2 0 -44 -23 -94 -49z"/>
<path d="M453 1684 c-24 -80 -24 -198 1 -244 23 -43 75 -110 85 -110 10 0 25
144 24 222 -1 58 -35 138 -74 174 -17 15 -19 13 -36 -42z"/>
<path d="M5650 1691 c-117 -49 -155 -73 -184 -118 -33 -50 -59 -113 -47 -113
6 0 45 11 88 25 93 29 145 63 176 113 23 37 60 123 55 126 -2 1 -41 -14 -88
-33z"/>
<path d="M581 1467 c-25 -145 -4 -230 75 -311 l39 -39 8 103 c10 126 -5 185
-63 259 -22 28 -42 51 -44 51 -2 0 -9 -28 -15 -63z"/>
<path d="M5501 1460 c-63 -22 -119 -49 -142 -69 -41 -34 -96 -117 -85 -129 13
-12 166 26 212 53 29 17 57 46 78 78 37 60 59 108 48 106 -4 -1 -54 -18 -111
-39z"/>
<path d="M725 1244 c-13 -134 9 -197 95 -278 28 -26 52 -46 54 -45 8 13 -14
230 -27 261 -20 47 -61 102 -92 122 l-23 15 -7 -75z"/>
<path d="M5405 1262 c-116 -27 -162 -42 -195 -64 -35 -24 -100 -102 -100 -120
0 -17 148 0 200 23 25 11 60 34 78 52 32 30 89 115 81 120 -2 2 -31 -3 -64
-11z"/>
<path d="M892 1029 c4 -79 10 -114 26 -144 21 -42 91 -113 132 -135 19 -10 21
-10 16 7 -3 10 -10 58 -16 107 -6 49 -17 103 -24 121 -16 38 -67 97 -109 127
l-30 21 5 -104z"/>
<path d="M5196 1055 c-49 -8 -108 -21 -132 -30 -42 -16 -134 -102 -134 -126 0
-20 176 -6 230 18 44 19 116 88 139 132 13 24 23 24 -103 6z"/>
<path d="M1072 858 c13 -132 61 -208 165 -262 40 -20 46 -20 35 2 -5 9 -17 56
-27 105 -21 101 -55 162 -116 207 -63 45 -66 42 -57 -52z"/>
<path d="M4995 870 c-55 -4 -116 -14 -136 -22 -42 -18 -119 -85 -119 -103 0
-17 142 -27 199 -14 57 13 75 23 128 72 55 51 71 78 46 75 -10 0 -63 -4 -118
-8z"/>
<path d="M1267 703 c18 -93 52 -164 95 -196 37 -28 118 -70 123 -65 6 5 -50
179 -68 214 -18 35 -59 74 -107 103 -56 34 -59 30 -43 -56z"/>
<path d="M4669 696 c-64 -23 -152 -87 -138 -100 8 -8 133 -26 179 -26 58 0
117 28 176 82 l47 43 -59 6 c-96 11 -167 9 -205 -5z"/>
<path d="M1460 625 c0 -8 11 -49 25 -92 30 -96 75 -152 148 -187 102 -48 101
-50 52 64 -54 124 -75 153 -128 184 -65 38 -97 48 -97 31z"/>
<path d="M4433 556 c-40 -13 -122 -65 -123 -77 0 -13 138 -43 195 -43 43 0 72
6 105 23 47 25 110 72 110 82 0 6 -71 15 -185 24 -36 3 -77 -1 -102 -9z"/>
<path d="M1670 506 c0 -16 64 -156 86 -187 28 -41 118 -93 181 -105 l32 -6
-49 93 c-59 110 -97 153 -165 185 -45 21 -85 31 -85 20z"/>
<path d="M4189 436 c-20 -7 -54 -23 -75 -36 l-38 -24 42 -18 c23 -11 72 -26
107 -35 84 -20 148 -8 225 44 l54 36 -95 23 c-106 26 -168 29 -220 10z"/>
<path d="M1906 378 c42 -138 142 -227 271 -245 l48 -6 -28 33 c-15 18 -37 51
-48 72 -34 67 -95 125 -155 148 -74 27 -97 27 -88 -2z"/>
<path d="M3925 334 c-40 -15 -82 -41 -74 -47 2 -2 38 -18 79 -37 105 -48 178
-48 275 -1 l69 34 -105 33 c-114 37 -179 41 -244 18z"/>
<path d="M2130 314 c0 -21 84 -145 119 -177 43 -39 120 -67 182 -67 l38 0 -50
68 c-92 122 -132 153 -214 167 -22 4 -48 9 -57 12 -10 2 -18 1 -18 -3z"/>
<path d="M3730 273 c-49 -8 -121 -35 -117 -46 1 -5 38 -29 81 -51 71 -37 86
-41 150 -41 53 0 84 6 124 24 29 13 50 26 48 29 -6 5 -102 46 -156 66 -43 16
-97 23 -130 19z"/>
<path d="M2370 244 c0 -5 26 -42 58 -83 73 -95 124 -124 231 -130 l75 -3 -74
82 c-46 51 -93 91 -122 106 -48 25 -168 44 -168 28z"/>
<path d="M3398 208 c-21 -6 -38 -13 -38 -17 0 -10 121 -89 165 -107 49 -20
150 -15 210 10 l40 17 -85 44 c-46 25 -98 49 -114 55 -36 12 -128 11 -178 -2z"/>
<path d="M2632 202 c-22 -7 -19 -11 45 -79 37 -39 84 -79 103 -89 39 -20 215
-34 209 -17 -9 22 -157 147 -194 163 -46 21 -129 32 -163 22z"/>
<path d="M2886 182 l-28 -7 65 -63 c85 -81 131 -102 222 -101 39 1 80 4 93 7
20 6 16 12 -43 57 -106 80 -159 107 -223 110 -31 2 -70 1 -86 -3z"/>
<path d="M3133 183 c-13 -2 -23 -7 -23 -11 1 -13 111 -95 157 -119 32 -16 64
-23 100 -23 56 0 143 18 143 29 -1 8 -131 90 -179 113 -34 17 -139 22 -198 11z"/>
</g>
</svg>
