<svg height="512pt" viewBox="-11 0 512 512.001" width="512pt" xmlns="http://www.w3.org/2000/svg"><path d="m146.863281 387.796875c-3.460937-1.910156-7.535156-2.375-11.335937-1.296875l-81.964844 23.25c-32.035156 8.425781-53.5625 36.34375-53.5625 69.46875v18.417969c0 7.925781 6.421875 14.351562 14.347656 14.363281h215.890625c-.027343-.359375-.054687-78.261719-.054687-78.261719zm13.257813 94.117187h-90c-8.285156 0-15-6.714843-15-15 0-8.28125 6.714844-15 15-15h90c8.28125 0 15 6.71875 15 15 0 8.285157-6.71875 15-15 15zm0 0"/><path d="m357.722656 125.882812c-4.691406-52.613281-45.59375-94.960937-97.542968-101.882812v-9c0-8.285156-6.714844-15-15-15-8.28125 0-15 6.714844-15 15v9c-51.949219 6.921875-92.847657 49.269531-97.539063 101.882812 32.523437-8.136718 71.71875-12.546874 112.539063-12.546874 40.820312-.003907 80.019531 4.410156 112.542968 12.546874zm-127.542968-51.441406c0-8.261718 6.738281-15 15-15 8.265624 0 15 6.738282 15 15 0 8.261719-6.734376 15-15 15-8.261719 0-15-6.738281-15-15zm0 0"/><path d="m313.515625 336.46875c-20.371094 12.621094-43.84375 19.378906-68.332031 19.378906-.003906 0-.777344 0-1.164063-.003906-24.585937-.214844-47.585937-7.390625-67.171875-19.640625v33.867187l68.480469 37.757813 68.1875-37.59375zm0 0"/><path d="m436.78125 409.746094-81.964844-23.246094c-3.800781-1.078125-7.875-.613281-11.335937 1.292969l-83.320313 45.941406s-.03125 77.90625-.054687 78.265625h215.890625c7.925781-.011719 14.347656-6.441406 14.347656-14.367188v-18.414062c0-33.125-21.527344-61.042969-53.5625-69.472656zm-16.558594 72.167968h-90c-8.28125 0-15-6.714843-15-15 0-8.28125 6.71875-15 15-15h90c8.285156 0 15 6.71875 15 15 0 8.285157-6.714844 15-15 15zm0 0"/><path d="m78.46875 238.925781c6.40625 6.078125 13.933594 10.65625 21.828125 14.523438 4.761719 2.335937 10.113281 4.609375 16.160156 6.785156-1.054687-6.703125-1.609375-13.566406-1.609375-20.554687v-35.054688c0-3.480469.457032-6.875 1.316406-10.121094 4.628907-2.105468 10.207032-4.273437 16.917969-6.417968 3.761719-1.207032 7.691407-2.34375 11.765625-3.40625v39.667968c0 55.253906 44.183594 101.011719 99.4375 101.496094 27.128906.234375 52.722656-10.300781 71.972656-29.609375 18.949219-19.007813 29.339844-44.140625 29.257813-70.761719l-.101563-40.820312c4.109376 1.074218 8.074219 2.21875 11.867188 3.433594 6.660156 2.128906 12.195312 4.277343 16.796875 6.367187.855469 3.214844 1.316406 6.574219 1.328125 10.019531l.109375 36.238282c.019531 6.570312-.449219 13.070312-1.390625 19.460937 39.304688-14.175781 49.9375-32.324219 50.964844-46.644531.007812-.089844.011718-.179688.015625-.269532.570312-8.996093-2.742188-17.566406-8.308594-24.527343-.011719.042969-.019531.082031-.03125.125-3.9375-4.902344-8.941406-9.164063-14.289063-12.800781-4.910156-3.339844-10.113281-6.15625-15.050781-8.457032-6.804687-3.171875-13.851562-5.800781-21-8.085937-32.601562-10.433594-75.660156-16.179688-121.246093-16.179688-45.582032 0-88.640626 5.746094-121.242188 16.179688-48.5625 15.539062-58.757812 36.648437-58.757812 51.621093 0 8.546876 3.550781 16.566407 8.910156 23.101563 1.355468 1.65625 2.824218 3.21875 4.378906 4.691406zm0 0"/></svg>